<?xml version="1.0" encoding="utf-8"?>
<!-- Generator: Adobe Illustrator 25.0.1, SVG Export Plug-In . SVG Version: 6.00 Build 0)  -->
<svg version="1.1" id="kana_flashcards" xmlns="http://www.w3.org/2000/svg" xmlns:xlink="http://www.w3.org/1999/xlink" x="0px"
	 y="0px" viewBox="0 0 111.3 40" style="enable-background:new 0 0 111.3 40;" xml:space="preserve">
<style type="text/css">
	.st0{fill:#17258A;}
	.st1{fill:#121619;}
	.st2{fill:#D88373;}
	.st3{fill:#F4E1E4;}
	.st4{fill:#EAEAEA;}
</style>
<g>
	<path class="st0" d="M16,8v16H0V10.1C0,8.9,0.9,8,2.1,8H16z"/>
	<path class="st1" d="M24,10.1V24h-8V8h5.9C23.1,8,24,8.9,24,10.1z"/>
	<path class="st2" d="M24,24v5.9c0,1.1-0.9,2.1-2.1,2.1H16v-8H24z"/>
	<path class="st3" d="M16,24v8H2.1C0.9,32,0,31.1,0,29.9V24H16z"/>
	<g>
		<path class="st4" d="M42,26.2c-0.8-0.9-1.2-2.2-1.2-3.8c0-1.1,0.2-2,0.6-2.8s1-1.4,1.7-1.8s1.6-0.6,2.5-0.6c1.2,0,2.1,0.3,2.8,0.9
			c0.6,0.6,1,1.5,1,2.7c0,0.8,0,1.4-0.1,1.8h-5.9c0,1.1,0.3,1.9,0.8,2.5c0.5,0.6,1.1,0.9,2,0.9c0.5,0,1-0.1,1.4-0.2
			c0.5-0.2,0.9-0.3,1.2-0.6l0.5,1c-0.3,0.3-0.8,0.7-1.6,1c-0.8,0.3-1.5,0.4-2.2,0.4C43.9,27.6,42.8,27.1,42,26.2z M46.9,21.5
			c0-0.3,0-0.6,0-0.8c0-1.6-0.5-2.4-1.6-2.4c-0.6,0-1,0.2-1.4,0.7c-0.3,0.5-0.5,1.3-0.5,2.5C43.4,21.5,46.9,21.5,46.9,21.5z"/>
		<path class="st4" d="M54.2,22.5l-3-3.8l-0.9-0.2v-1h5.2v1l-1.2,0.2l1.4,2l0.5,0.8l0.5-0.8l1.5-2L57,18.5v-1h3.9v1l-1,0.2l-2.8,3.5
			l3.1,4l1,0.2v1.1H56v-1.1l1.1-0.2l-1.4-2.1L55,23.3L54.5,24L53,26.1l1.4,0.2v1.1h-4.3v-1.1l1.2-0.2L54.2,22.5z"/>
		<path class="st4" d="M63.5,15.4l-1.4-0.2V14h5.8v1.1l-1.7,0.2V26H70l1.1-3.4l1.5,0.2L72,27.4H62v-1.1l1.4-0.2L63.5,15.4L63.5,15.4
			z"/>
		<path class="st4" d="M74.4,19.1l-1.3-0.3v-1.2l3.3-0.4l0,0l0.5,0.4v8.7l1.2,0.1v1.1h-5v-1.1l1.3-0.2V19.1z M74.4,15.4
			c-0.3-0.3-0.4-0.6-0.4-1c0-0.5,0.1-0.8,0.4-1.1c0.3-0.3,0.7-0.5,1.2-0.5c0.5,0,0.8,0.1,1.1,0.4c0.3,0.3,0.4,0.6,0.4,1
			c0,0.5-0.1,0.9-0.4,1.2s-0.7,0.4-1.2,0.4l0,0C75,15.8,74.6,15.6,74.4,15.4z"/>
		<path class="st4" d="M78,13l3.3-0.4l0,0l0.5,0.3v5.3c0.3-0.3,0.7-0.6,1.2-0.8c0.5-0.2,1-0.3,1.5-0.3c1.2,0,2.1,0.4,2.8,1.2
			c0.7,0.8,1.1,2,1.1,3.7c0,1-0.2,2-0.6,2.8s-1.1,1.5-1.9,2c-0.8,0.5-1.7,0.7-2.8,0.7c-0.9,0-1.8-0.1-2.5-0.2
			c-0.7-0.2-1.1-0.3-1.3-0.4V14.2L78,14V13z M82.6,19c-0.3,0.2-0.6,0.3-0.8,0.5v6.6c0.1,0.1,0.2,0.2,0.5,0.3s0.6,0.1,0.9,0.1
			c0.8,0,1.4-0.4,1.8-1.1c0.4-0.7,0.7-1.8,0.7-3.2c0-1.2-0.2-2.1-0.6-2.7c-0.4-0.6-0.9-0.9-1.6-0.9C83.2,18.7,82.9,18.8,82.6,19z"/>
		<path class="st4" d="M89.2,26.3l1.2-0.1v-7.1l-1.2-0.3v-1.2l2.8-0.4h0.1l0.4,0.4V18l-0.1,1.5h0.1c0.1-0.2,0.3-0.5,0.6-0.9
			c0.3-0.4,0.7-0.7,1.2-0.9c0.5-0.3,1-0.4,1.5-0.4c0.3,0,0.5,0,0.7,0.1V20c-0.4-0.3-0.8-0.4-1.3-0.4c-0.9,0-1.6,0.2-2.3,0.7v5.9
			l2.1,0.2v1.1h-5.8L89.2,26.3L89.2,26.3z"/>
		<path class="st4" d="M98.9,19.1l-1.3-0.3v-1.2l3.3-0.4l0,0l0.5,0.4v8.7l1.2,0.1v1.1h-5v-1.1l1.3-0.2V19.1z M98.8,15.4
			c-0.3-0.3-0.4-0.6-0.4-1c0-0.5,0.1-0.8,0.4-1.1s0.7-0.5,1.2-0.5s0.8,0.1,1.1,0.4c0.3,0.3,0.4,0.6,0.4,1c0,0.5-0.1,0.9-0.4,1.2
			c-0.3,0.3-0.7,0.4-1.2,0.4l0,0C99.4,15.8,99,15.6,98.8,15.4z"/>
		<path class="st4" d="M105.5,25.9c0.1,0.1,0.3,0.3,0.7,0.4c0.4,0.1,0.7,0.2,1,0.2c0.6,0,1-0.1,1.3-0.4c0.3-0.2,0.4-0.5,0.4-0.9
			s-0.2-0.7-0.5-1s-0.9-0.5-1.8-0.9l-0.5-0.2c-0.8-0.3-1.4-0.8-1.9-1.3c-0.5-0.5-0.6-1.1-0.6-1.9c0-0.5,0.2-1,0.5-1.4s0.8-0.8,1.4-1
			s1.3-0.4,2-0.4c0.6,0,1,0,1.4,0.1s0.8,0.2,1.3,0.3c0.2,0.1,0.4,0.1,0.5,0.1V20h-1.4l-0.4-1.4c-0.1-0.1-0.2-0.2-0.5-0.3
			c-0.3-0.1-0.5-0.1-0.9-0.1c-0.5,0-0.9,0.1-1.2,0.3c-0.3,0.2-0.4,0.5-0.4,0.9c0,0.3,0.1,0.6,0.3,0.8c0.2,0.2,0.4,0.4,0.7,0.5
			c0.2,0.1,0.7,0.3,1.3,0.6c0.6,0.3,1.2,0.5,1.6,0.8c0.4,0.3,0.8,0.6,1.1,1s0.4,0.9,0.4,1.5c0,0.9-0.3,1.6-1,2.2
			c-0.7,0.6-1.7,0.8-3,0.8c-0.6,0-1.2-0.1-1.6-0.2c-0.5-0.1-1-0.3-1.7-0.4l-0.4-0.1v-2.4h1.5L105.5,25.9z"/>
	</g>
</g>
</svg>
