<?xml version="1.0" encoding="utf-8"?>
<!-- Generator: Adobe Illustrator 25.0.1, SVG Export Plug-In . SVG Version: 6.00 Build 0)  -->
<svg version="1.1" id="me" xmlns="http://www.w3.org/2000/svg" xmlns:xlink="http://www.w3.org/1999/xlink" x="0px" y="0px"
	 viewBox="0 0 650 650" style="enable-background:new 0 0 650 650;" xml:space="preserve">
<style type="text/css">
	.me0{fill:#F2B191;}
	.me1{fill:#FFD2AC;}
	.me2{fill:#F5C1A0;}
	.me3{fill:#E99A7E;}
	.me4{fill:#DB907D;}
	.me5{fill:#7B2E00;}
	.me6{fill:#EAE1CA;}
	.me7{fill:#F9F3E1;}
	.me8{fill:#8DC63F;}
	.me9{fill:#B9254C;}
	.me10{fill:#F4A097;}
	.me11{fill:#E89086;}
	.me12{fill:#D57E6F;}
	.me13{fill:#FAD6D7;}
	.me14{fill:#F4BFBC;}
	.me15{fill:#F0ABAB;}
	.me16{fill:#734E3E;}
	.me17{fill:#825E47;}
	.me18{fill:#C19162;}
</style>
<g id="face">
	<g id="base">
		<polygon class="me0" points="460,170 460,215 455,215 455,225 450,225 450,240 445,240 445,250 440,250 440,255 430,255 430,250 
			425,250 425,260 420,260 420,275 415,275 415,325 420,325 420,345 415,345 415,355 410,355 410,365 405,365 405,375 400,375 
			400,385 395,385 395,390 390,390 390,395 385,395 385,400 380,400 380,405 375,405 375,410 370,410 370,415 365,415 365,420 
			360,420 360,425 355,425 355,430 345,430 345,435 335,435 335,440 325,440 325,445 315,445 315,450 305,450 305,455 300,455 
			300,450 295,450 295,445 290,445 290,440 285,440 285,435 280,435 280,425 275,425 275,415 270,415 270,400 265,400 265,375 
			260,375 260,310 255,310 255,305 250,305 250,295 245,295 245,285 240,285 240,280 235,280 235,270 230,270 230,260 225,260 
			225,255 215,255 215,250 210,250 210,240 205,240 205,230 200,230 200,220 195,220 195,185 200,185 200,180 210,180 210,190 
			215,190 215,200 220,200 220,135 225,135 225,120 230,120 230,105 235,105 235,95 240,95 240,90 245,90 245,85 255,85 255,80 
			265,80 265,75 275,75 275,70 305,70 305,65 355,65 355,70 380,70 380,75 390,75 390,80 400,80 400,85 405,85 405,90 410,90 
			410,95 415,95 415,105 420,105 420,120 425,120 425,145 430,145 430,195 435,195 435,190 440,190 440,175 445,175 445,165 
			455,165 455,170 		"/>
	</g>
	<g id="mid-light">
		<rect x="400" y="85" class="me1" width="5" height="5"/>
		<rect x="410" y="95" class="me1" width="5" height="5"/>
		<rect x="415" y="105" class="me1" width="5" height="5"/>
		<rect x="290" y="165" class="me1" width="5" height="5"/>
		<rect x="350" y="165" class="me1" width="5" height="5"/>
		<rect x="385" y="165" class="me1" width="5" height="5"/>
		<rect x="455" y="170" class="me1" width="5" height="5"/>
		<path class="me2" d="M455,195v-5h-10v5h5v5h5v10h-5v10h-5v5h-5v10h-10v-15h5v-15h-5v-60h-5v-25h-5v-10h-5v-10h-5V90h-10V80h-10v-5
			h-10v-5h-30v-5h-15v5h-45v5h-15v5h-10v5h-10v5h-5v10h-5v20h5v5h50v5h5v15h5v60h-5v15h5v5h20v-5h15v5h5v5h-5v10h-10v-5h-15v5h-5v10
			h10v-5h5v5h20v5h10v-5h5v5h5v5h-5v5h-5v5h-5v5h-5v5h-10v5h-15v5h10v5h-5v5h-30v5h-5v10h5v5h10v5h25v5h25v-5h10v-5h10v-5h5v-5h5v-5
			h5v-5h5v-5h5v5h-5v5h-5v10h-5v5h-5v5h-5v5h-5v5h-10v5h-5v5h-10v5h-10v5h-5v5h-10v5h-5v10h5v10h5v20h-5v15h5v5h15v-5h10v-5h10v-5h5
			v-5h5v-5h5v-5h10v-10h5v-10h5v-10h5v-10h5v-10h5v-70h5v-15h5v-10h5v5h10v-5h5v-10h5v-15h5v-10h5v-20H455z M330,145h5v5h-5V145z
			 M330,155h5v5h-5V155z M330,165h5v20h-5V165z M340,195h-5v-5h5V195z M355,235v-15h-5v-5h-5v-5h5v5h5v5h5v5h5v5h5v5h5v5h5v5h-5v-5
			h-5v-5H355z M385,270h-5v5h-5v-5h5v-5h5V270z M385,260h-5v-5h5V260z M400,170h-5v5h-10v5h-5v-5h5v-5h-30v5h5v5h-5v-5h-10v-5h-5
			v-15h5v-5h5v-5h35v5h5v5h5v5h5V170z M415,155h-5v-5h-5v-5h-10v-5h-60v-10h5v-5h50v5h10v5h5v5h5v10h5V155z"/>
		<rect x="355" y="150" class="me2" width="30" height="5"/>
		<rect x="250" y="140" class="me2" width="5" height="5"/>
		<rect x="240" y="145" class="me2" width="5" height="5"/>
		<rect x="235" y="150" class="me2" width="5" height="5"/>
		<rect x="265" y="150" class="me2" width="25" height="5"/>
		<rect x="260" y="160" class="me2" width="5" height="5"/>
		<rect x="285" y="160" class="me2" width="5" height="5"/>
		<rect x="355" y="160" class="me2" width="5" height="5"/>
		<rect x="385" y="160" class="me2" width="5" height="5"/>
		<rect x="255" y="165" class="me2" width="5" height="5"/>
		<rect x="265" y="170" class="me2" width="25" height="5"/>
		<polygon class="me2" points="455,165 455,170 450,170 450,175 445,175 445,165 		"/>
		<rect x="200" y="180" class="me2" width="10" height="5"/>
		<rect x="440" y="175" class="me2" width="5" height="10"/>
		<rect x="195" y="185" class="me2" width="5" height="5"/>
		<rect x="205" y="195" class="me2" width="5" height="5"/>
		<polygon class="me2" points="250,205 250,215 245,215 245,220 240,220 240,225 235,225 235,220 230,220 230,205 235,205 235,195 
			240,195 240,200 245,200 245,205 		"/>
		<rect x="200" y="200" class="me2" width="5" height="10"/>
		<rect x="210" y="235" class="me2" width="5" height="5"/>
		<rect x="215" y="240" class="me2" width="5" height="10"/>
		<rect x="260" y="265" class="me2" width="5" height="5"/>
		<rect x="265" y="270" class="me2" width="5" height="5"/>
		<rect x="235" y="275" class="me2" width="5" height="5"/>
	</g>
	<g id="high-light">
		<rect x="400" y="85" class="me1" width="5" height="5"/>
		<rect x="410" y="95" class="me1" width="5" height="5"/>
		<rect x="415" y="105" class="me1" width="5" height="5"/>
		<rect x="275" y="150" class="me1" width="10" height="5"/>
		<rect x="370" y="150" class="me1" width="10" height="5"/>
		<rect x="290" y="165" class="me1" width="5" height="5"/>
		<rect x="350" y="165" class="me1" width="5" height="5"/>
		<rect x="385" y="165" class="me1" width="5" height="5"/>
		<rect x="450" y="165" class="me1" width="5" height="5"/>
		<rect x="275" y="170" class="me1" width="10" height="5"/>
		<rect x="365" y="170" class="me1" width="20" height="5"/>
		<rect x="455" y="170" class="me1" width="5" height="5"/>
		<rect x="450" y="190" class="me1" width="5" height="5"/>
		<polygon class="me1" points="335,210 335,215 325,215 325,220 315,220 315,210 320,210 320,190 325,190 325,205 330,205 330,210 
					"/>
		<polygon class="me1" points="430,150 430,200 425,200 425,185 420,185 420,175 415,175 415,140 410,140 410,135 415,135 415,130 
			420,130 420,120 425,120 425,150 		"/>
		<rect x="455" y="195" class="me1" width="5" height="5"/>
		<polygon class="me1" points="415,195 415,215 410,215 410,225 400,225 400,220 395,220 395,215 390,215 390,205 400,205 400,200 
			410,200 410,195 		"/>
		<rect x="430" y="205" class="me1" width="5" height="10"/>
		<rect x="455" y="210" class="me1" width="5" height="5"/>
		<rect x="345" y="215" class="me1" width="5" height="5"/>
		<rect x="350" y="220" class="me1" width="5" height="10"/>
		<rect x="345" y="230" class="me1" width="5" height="5"/>
		<rect x="325" y="240" class="me1" width="5" height="5"/>
		<rect x="435" y="240" class="me1" width="5" height="5"/>
		<rect x="330" y="245" class="me1" width="5" height="5"/>
		<rect x="420" y="245" class="me1" width="5" height="15"/>
		<rect x="415" y="265" class="me1" width="5" height="10"/>
		<rect x="410" y="275" class="me1" width="5" height="10"/>
		<rect x="405" y="285" class="me1" width="5" height="5"/>
		<polygon class="me1" points="350,310 350,315 345,315 345,320 325,320 325,315 330,315 330,310 		"/>
		<rect x="325" y="365" class="me1" width="5" height="10"/>
	</g>
	<g id="mid-shadow">
		<rect x="305" y="65" class="me3" width="5" height="5"/>
		<rect x="275" y="70" class="me3" width="5" height="5"/>
		<rect x="265" y="75" class="me3" width="5" height="5"/>
		<rect x="255" y="80" class="me3" width="5" height="5"/>
		<rect x="245" y="85" class="me3" width="5" height="5"/>
		<rect x="240" y="90" class="me3" width="5" height="5"/>
		<rect x="235" y="95" class="me3" width="5" height="5"/>
		<rect x="230" y="105" class="me3" width="5" height="5"/>
		<rect x="225" y="120" class="me3" width="5" height="5"/>
		<rect x="220" y="135" class="me3" width="5" height="5"/>
		<rect x="360" y="145" class="me3" width="20" height="5"/>
		<rect x="350" y="150" class="me3" width="5" height="5"/>
		<rect x="385" y="150" class="me3" width="5" height="5"/>
		<rect x="345" y="155" class="me3" width="5" height="5"/>
		<rect x="355" y="155" class="me3" width="15" height="5"/>
		<rect x="375" y="155" class="me3" width="10" height="5"/>
		<rect x="245" y="160" class="me3" width="5" height="5"/>
		<rect x="255" y="160" class="me3" width="5" height="5"/>
		<rect x="340" y="160" class="me3" width="5" height="5"/>
		<rect x="350" y="160" class="me3" width="5" height="5"/>
		<rect x="390" y="160" class="me3" width="5" height="5"/>
		<polygon class="me3" points="305,155 305,170 300,170 300,165 295,165 295,160 260,160 260,155 255,155 255,150 265,150 265,155 
			290,155 290,150 265,150 265,145 295,145 295,150 300,150 300,155 		"/>
		<rect x="255" y="170" class="me3" width="5" height="5"/>
		<rect x="295" y="170" class="me3" width="5" height="5"/>
		<rect x="220" y="170" class="me3" width="5" height="25"/>
		<rect x="265" y="175" class="me3" width="5" height="5"/>
		<rect x="285" y="175" class="me3" width="5" height="5"/>
		<rect x="450" y="175" class="me3" width="5" height="15"/>
		<polygon class="me3" points="450,200 450,205 445,205 445,215 440,215 440,225 430,225 430,220 435,220 435,205 430,205 430,195 
			445,195 445,200 		"/>
		<polygon class="me3" points="220,215 220,230 215,230 215,225 210,225 210,215 205,215 205,200 215,200 215,215 		"/>
		<rect x="300" y="200" class="me3" width="5" height="10"/>
		<polygon class="me3" points="345,225 345,230 340,230 340,235 320,235 320,230 330,230 330,225 		"/>
		<rect x="355" y="225" class="me3" width="5" height="5"/>
		<rect x="275" y="230" class="me3" width="5" height="5"/>
		<polygon class="me3" points="315,230 315,235 295,235 295,230 280,230 280,225 285,225 285,220 290,220 290,215 295,215 295,210 
			300,210 300,225 310,225 310,230 		"/>
		<rect x="360" y="230" class="me3" width="5" height="5"/>
		<rect x="270" y="235" class="me3" width="5" height="5"/>
		<rect x="220" y="245" class="me3" width="5" height="5"/>
		<rect x="260" y="245" class="me3" width="5" height="5"/>
		<polygon class="me3" points="315,250 315,255 310,255 310,260 305,260 305,255 300,255 300,250 		"/>
		<rect x="225" y="255" class="me3" width="5" height="5"/>
		<rect x="270" y="255" class="me3" width="5" height="5"/>
		<rect x="315" y="255" class="me3" width="5" height="5"/>
		<rect x="275" y="260" class="me3" width="5" height="5"/>
		<rect x="230" y="265" class="me3" width="5" height="5"/>
		<polygon class="me3" points="295,270 295,275 285,275 285,270 280,270 280,265 290,265 290,270 		"/>
		<rect x="295" y="275" class="me3" width="5" height="5"/>
		<polygon class="me3" points="340,270 340,275 330,275 330,280 325,280 325,275 300,275 300,270 		"/>
		<rect x="240" y="280" class="me3" width="5" height="5"/>
		<rect x="305" y="280" class="me3" width="5" height="5"/>
		<rect x="250" y="300" class="me3" width="5" height="5"/>
		<rect x="255" y="305" class="me3" width="5" height="5"/>
		<polygon class="me3" points="355,335 355,340 345,340 345,345 340,345 340,350 330,350 330,355 320,355 320,360 315,360 315,380 
			320,380 320,385 325,385 325,400 320,400 320,410 315,410 315,415 305,415 305,420 295,420 295,425 290,425 290,440 285,440 
			285,435 280,435 280,425 275,425 275,415 270,415 270,400 265,400 265,375 260,375 260,310 265,310 265,315 270,315 270,320 
			275,320 275,325 285,325 285,330 295,330 295,335 		"/>
		<rect x="350" y="425" class="me3" width="5" height="5"/>
		<rect x="335" y="430" class="me3" width="10" height="5"/>
		<rect x="325" y="435" class="me3" width="10" height="5"/>
		<rect x="290" y="440" class="me3" width="5" height="5"/>
		<rect x="305" y="445" class="me3" width="10" height="5"/>
	</g>
	<g id="shadow">
		<rect x="285" y="145" class="me4" width="5" height="5"/>
		<rect x="290" y="150" class="me4" width="5" height="5"/>
		<rect x="250" y="155" class="me4" width="5" height="5"/>
		<rect x="265" y="155" class="me4" width="10" height="5"/>
		<rect x="295" y="155" class="me4" width="5" height="5"/>
		<rect x="355" y="155" class="me4" width="5" height="5"/>
		<rect x="300" y="160" class="me4" width="5" height="5"/>
		<rect x="450" y="180" class="me4" width="5" height="5"/>
		<rect x="430" y="200" class="me4" width="5" height="5"/>
		<polygon class="me4" points="220,215 220,220 210,220 210,205 215,205 215,215 		"/>
		<rect x="435" y="205" class="me4" width="5" height="15"/>
		<rect x="290" y="220" class="me4" width="5" height="10"/>
		<rect x="430" y="220" class="me4" width="5" height="5"/>
		<rect x="300" y="225" class="me4" width="5" height="5"/>
		<rect x="335" y="225" class="me4" width="5" height="5"/>
		<rect x="295" y="230" class="me4" width="5" height="5"/>
		<rect x="305" y="255" class="me4" width="5" height="5"/>
		<rect x="300" y="270" class="me4" width="40" height="5"/>
		<polygon class="me4" points="335,340 335,345 325,345 325,350 315,350 315,355 310,355 310,380 315,380 315,385 320,385 320,395 
			315,395 315,400 310,400 310,405 295,405 295,400 290,400 290,395 285,395 285,390 280,390 280,380 275,380 275,370 270,370 
			270,360 265,360 265,340 260,340 260,315 265,315 265,320 270,320 270,325 280,325 280,330 290,330 290,335 305,335 305,340 		"/>
		<rect x="260" y="360" class="me4" width="5" height="15"/>
		<rect x="265" y="375" class="me4" width="5" height="25"/>
		<rect x="270" y="400" class="me4" width="5" height="15"/>
		<rect x="275" y="420" class="me4" width="5" height="5"/>
		<rect x="280" y="430" class="me4" width="5" height="5"/>
		<rect x="285" y="435" class="me4" width="5" height="5"/>
		<rect x="330" y="435" class="me4" width="5" height="5"/>
		<rect x="320" y="440" class="me4" width="5" height="5"/>
		<rect x="310" y="445" class="me4" width="5" height="5"/>
		<rect x="300" y="450" class="me4" width="5" height="5"/>
	</g>
	<g id="mouth_et_eye">
		<rect x="270" y="160" class="me5" width="5" height="5"/>
		<rect x="275" y="160" class="me6" width="5" height="5"/>
		<rect x="365" y="160" class="me5" width="5" height="5"/>
		<rect x="370" y="160" class="me6" width="5" height="5"/>
		<rect x="380" y="160" class="me6" width="5" height="10"/>
		<rect x="260" y="165" class="me6" width="5" height="5"/>
		<rect x="265" y="165" class="me7" width="5" height="5"/>
		<rect x="270" y="165" class="me8" width="5" height="5"/>
		<rect x="275" y="165" class="me9" width="5" height="5"/>
		<rect x="285" y="165" class="me6" width="5" height="5"/>
		<rect x="355" y="165" class="me6" width="5" height="5"/>
		<rect x="360" y="165" class="me7" width="5" height="5"/>
		<rect x="365" y="165" class="me8" width="5" height="5"/>
		<rect x="370" y="165" class="me9" width="5" height="5"/>
		<rect x="290" y="250" class="me10" width="10" height="5"/>
		<rect x="275" y="255" class="me11" width="30" height="5"/>
		<rect x="310" y="255" class="me11" width="5" height="5"/>
		<rect x="280" y="260" class="me10" width="5" height="5"/>
		<rect x="285" y="260" class="me6" width="10" height="5"/>
		<polygon class="me7" points="345,260 345,265 325,265 325,270 315,270 315,265 295,265 295,260 		"/>
		<rect x="345" y="260" class="me6" width="10" height="5"/>
		<polygon class="me10" points="365,255 365,260 360,260 360,265 355,265 355,260 320,260 320,255 315,255 315,250 340,250 340,255 
					"/>
		<rect x="290" y="265" class="me10" width="5" height="5"/>
		<rect x="295" y="265" class="me6" width="20" height="5"/>
		<rect x="325" y="265" class="me6" width="20" height="5"/>
		<rect x="295" y="270" class="me11" width="5" height="5"/>
		<polygon class="me10" points="355,265 355,270 350,270 350,275 340,275 340,270 345,270 345,265 		"/>
		<rect x="300" y="275" class="me11" width="10" height="5"/>
		<rect x="310" y="275" class="me12" width="10" height="5"/>
		<rect x="330" y="275" class="me10" width="10" height="5"/>
		<polygon class="me11" points="325,275 325,285 310,285 310,280 320,280 320,275 		"/>
		<rect x="325" y="280" class="me10" width="5" height="5"/>
	</g>
</g>
<g id="shirt">
	<g id="shirt-base_1_">
		<polygon class="me13" points="650,625 650,650 70,650 70,645 75,645 75,625 80,625 80,600 85,600 85,565 90,565 90,535 95,535 
			95,505 100,505 100,485 105,485 105,475 110,475 110,470 115,470 115,465 120,465 120,460 125,460 125,455 130,455 130,450 
			140,450 140,445 150,445 150,440 160,440 160,435 170,435 170,430 180,430 180,425 190,425 190,420 195,420 195,415 205,415 
			205,410 215,410 215,405 220,405 220,400 225,400 225,395 230,395 230,385 235,385 235,380 240,380 240,370 245,370 245,360 
			250,360 250,350 255,350 255,345 260,345 260,375 265,375 265,400 270,400 270,415 275,415 275,425 280,425 280,435 285,435 
			285,445 295,445 295,450 300,450 300,455 305,455 305,450 315,450 315,445 325,445 325,440 335,440 335,435 345,435 345,430 
			355,430 355,425 360,425 360,420 365,420 365,415 370,415 370,410 375,410 375,405 380,405 380,400 385,400 385,395 390,395 
			390,390 395,390 395,385 400,385 400,375 405,375 405,365 410,365 410,355 415,355 415,345 420,345 420,325 415,325 415,320 
			425,320 425,325 435,325 435,330 440,330 440,335 445,335 445,340 450,340 450,345 455,345 455,355 460,355 460,360 470,360 
			470,365 480,365 480,370 490,370 490,375 500,375 500,380 510,380 510,385 520,385 520,390 530,390 530,395 540,395 540,400 
			550,400 550,405 560,405 560,410 570,410 570,415 580,415 580,420 590,420 590,425 600,425 600,430 605,430 605,435 610,435 
			610,440 615,440 615,445 620,445 620,455 625,455 625,465 630,465 630,480 635,480 635,515 640,515 640,565 645,565 645,625 		"/>
		<rect x="285" y="440" class="me14" width="5" height="5"/>
	</g>
	<g id="shirt-mid">
		<rect x="415" y="320" class="me14" width="5" height="5"/>
		<rect x="420" y="325" class="me14" width="5" height="5"/>
		<rect x="210" y="410" class="me14" width="5" height="10"/>
		<rect x="205" y="420" class="me14" width="5" height="10"/>
		<polygon class="me14" points="255,360 255,380 250,380 250,395 245,395 245,420 240,420 240,425 230,425 230,410 235,410 235,400 
			240,400 240,390 245,390 245,375 250,375 250,360 		"/>
		<rect x="225" y="425" class="me14" width="5" height="5"/>
		<rect x="255" y="425" class="me14" width="5" height="5"/>
		<path class="me14" d="M610,535v-40h-5v-20h-5v-10h-5v-10h-5v-5h-5v-5h-5v-5h-5v-5h-5v-5h-10v-5h-5v-5h-10v-5h-5v-5h-10v-5h-5v-5
			h-10v-5h-5v-5h-10v-5h-10v-5h-10v-5h-5v-5h-10v-5h-5v5h-5v-15h-5v-10h-5v-5h-5v-5h-5v-5h-10v15h-5v10h-5v10h-5v10h-5v5h-5v5h-5v5
			h-5v5h-5v5h-5v5h-5v5h-5v5h-5v5h-5v5h-5v5h10v-5h5v-5h15v-5h5v-5h5v-5h5v-5h5v-5h5v-10h5v-10h5v-10h5v-10h5v10h-5v15h-5v10h-5v10
			h-5v10h-5v10h-5v10h-5v5h5v5h5v5h10v5h15v-10h5v-10h5v-10h5v-5h5v10h-5v10h-5v10h-5v15h-5v5h-10v-5h-15v-5h-15v-5h-10v-5h-10v-5
			h-5v-5h-10v5h-10v5h-10v-5h-10v5h5v5h-5v-5h-10v5h5v5h-5v-5h-10v5h5v5h-5v-5h-5v10h-5v30h5v20h-5v60h-5v50h-5v25h180v-15h5v-10h5
			v-20h5v35h5v10h115v-10h-5v-10h-5v-15h5v-5h5v-30h5v-25h5v-10h-5v-5h-5v-5h-5v-5h10v5H610z M310,610h-5v5h-5v-5h-5v-5h5v-5h5v5h5
			V610z M315,545h-5v5h-5v-5h-5v-5h5v-5h5v5h5V545z M315,480h-5v5h-5v-5h-5v-5h5v-5h5v5h5V480z M455,410h-10v-5h5v-5h5V410z
			 M460,395h-5v-5h5V395z M460,380h-5v-5h5V380z"/>
		<rect x="200" y="430" class="me14" width="5" height="10"/>
		<rect x="345" y="430" class="me14" width="10" height="5"/>
		<rect x="210" y="435" class="me14" width="10" height="5"/>
		<rect x="275" y="435" class="me14" width="5" height="5"/>
		<rect x="335" y="435" class="me14" width="10" height="5"/>
		<rect x="195" y="440" class="me14" width="5" height="5"/>
		<rect x="205" y="440" class="me14" width="5" height="5"/>
		<rect x="285" y="440" class="me14" width="5" height="5"/>
		<rect x="200" y="445" class="me14" width="5" height="5"/>
		<rect x="305" y="475" class="me14" width="5" height="5"/>
		<rect x="305" y="540" class="me14" width="5" height="5"/>
		<rect x="300" y="605" class="me14" width="5" height="5"/>
		<polygon class="me14" points="285,465 285,495 290,495 290,515 285,515 285,575 280,575 280,625 275,625 275,650 210,650 210,640 
			205,640 205,620 200,620 200,630 195,630 195,640 190,640 190,650 140,650 140,645 135,645 135,640 130,640 130,625 115,625 
			115,630 105,630 105,625 110,625 110,620 120,620 120,610 125,610 125,565 120,565 120,560 115,560 115,555 120,555 120,535 
			115,535 115,495 120,495 120,480 125,480 125,475 130,475 130,470 135,470 135,465 150,465 150,460 165,460 165,455 180,455 
			180,450 195,450 195,455 205,455 205,450 210,450 210,445 220,445 220,440 260,440 260,445 280,445 280,450 285,450 285,460 
			290,460 290,465 		"/>
		<rect x="100" y="630" class="me14" width="5" height="5"/>
	</g>
	<g id="shirt-shadow">
		<path class="me15" d="M285,445v-10h-5v5h-5v-5h5v-10h-5v-10h-5v-15h-5v-25h-5v-30h-5v5h-5v10h5v20h-5v15h-5v25h5v5h-15v5h-10v5h-5
			v5h40v5h20v5h5v10h5v-15H285z M255,430v-5h10v5H255z"/>
		<rect x="455" y="390" class="me15" width="5" height="5"/>
		<rect x="450" y="400" class="me15" width="5" height="10"/>
		<rect x="445" y="415" class="me15" width="5" height="10"/>
		<rect x="440" y="425" class="me15" width="5" height="10"/>
		<polygon class="me15" points="250,360 250,375 245,375 245,390 240,390 240,400 235,400 235,410 230,410 230,425 225,425 225,430 
			220,430 220,435 210,435 210,440 205,440 205,430 210,430 210,420 215,420 215,405 220,405 220,400 225,400 225,395 230,395 
			230,385 235,385 235,380 240,380 240,370 245,370 245,360 		"/>
		<rect x="345" y="435" class="me15" width="10" height="5"/>
		<rect x="200" y="440" class="me15" width="5" height="5"/>
		<rect x="210" y="440" class="me15" width="10" height="5"/>
		<rect x="335" y="440" class="me15" width="10" height="5"/>
		<rect x="435" y="440" class="me15" width="5" height="5"/>
		<rect x="205" y="445" class="me15" width="5" height="5"/>
		<rect x="325" y="445" class="me15" width="5" height="5"/>
		<rect x="315" y="450" class="me15" width="5" height="5"/>
		<polygon class="me15" points="435,450 435,460 430,460 430,465 420,465 420,460 405,460 405,455 390,455 390,450 380,450 380,445 
			370,445 370,440 365,440 365,435 355,435 355,430 365,430 365,425 380,425 380,430 385,430 385,435 390,435 390,440 400,440 
			400,445 410,445 410,450 420,450 420,455 430,455 430,450 		"/>
		<rect x="295" y="455" class="me15" width="5" height="5"/>
		<rect x="305" y="455" class="me15" width="5" height="5"/>
		<rect x="290" y="460" class="me15" width="5" height="5"/>
		<rect x="285" y="465" class="me15" width="5" height="30"/>
		<rect x="305" y="470" class="me15" width="5" height="5"/>
		<rect x="300" y="475" class="me15" width="5" height="5"/>
		<rect x="310" y="475" class="me15" width="5" height="5"/>
		<rect x="305" y="480" class="me15" width="5" height="5"/>
		<rect x="290" y="495" class="me15" width="5" height="20"/>
		<rect x="285" y="515" class="me15" width="5" height="60"/>
		<rect x="305" y="535" class="me15" width="5" height="5"/>
		<rect x="300" y="540" class="me15" width="5" height="5"/>
		<rect x="310" y="540" class="me15" width="5" height="5"/>
		<rect x="305" y="545" class="me15" width="5" height="5"/>
		<rect x="280" y="575" class="me15" width="5" height="50"/>
		<rect x="300" y="600" class="me15" width="5" height="5"/>
		<rect x="295" y="605" class="me15" width="5" height="5"/>
		<rect x="305" y="605" class="me15" width="5" height="5"/>
		<polygon class="me15" points="485,640 485,650 465,650 465,635 470,635 470,625 475,625 475,605 480,605 480,640 		"/>
		<rect x="300" y="610" class="me15" width="5" height="5"/>
		<polygon class="me15" points="210,410 210,420 205,420 205,430 200,430 200,440 195,440 195,445 200,445 200,450 205,450 205,455 
			195,455 195,450 180,450 180,455 165,455 165,460 150,460 150,465 135,465 135,470 130,470 130,475 125,475 125,480 120,480 
			120,495 115,495 115,535 120,535 120,555 115,555 115,560 120,560 120,565 125,565 125,610 120,610 120,620 110,620 110,625 
			105,625 105,630 100,630 100,635 105,635 105,630 115,630 115,625 130,625 130,640 135,640 135,645 140,645 140,650 70,650 
			70,645 75,645 75,625 80,625 80,600 85,600 85,565 90,565 90,535 95,535 95,505 100,505 100,485 105,485 105,475 110,475 110,470 
			115,470 115,465 120,465 120,460 125,460 125,455 130,455 130,450 140,450 140,445 150,445 150,440 160,440 160,435 170,435 
			170,430 180,430 180,425 190,425 190,420 195,420 195,415 205,415 205,410 		"/>
		<rect x="275" y="625" class="me15" width="5" height="25"/>
	</g>
</g>
<g id="hair">
	<g id="hair-mid_1_">
		<polygon class="me16" points="410,140 410,150 405,150 405,145 395,145 395,140 340,140 340,130 345,130 345,125 390,125 390,130 
			400,130 400,135 405,135 405,140 		"/>
		<polygon class="me16" points="300,130 300,140 250,140 250,145 240,145 240,150 235,150 235,140 240,140 240,135 245,135 245,130 
			260,130 260,125 295,125 295,130 		"/>
		<polygon class="me16" points="450,125 450,135 455,135 455,160 450,160 450,165 445,165 445,175 440,175 440,190 435,190 435,195 
			430,195 430,145 425,145 425,120 420,120 420,105 415,105 415,95 410,95 410,90 405,90 405,85 400,85 400,80 390,80 390,75 
			380,75 380,70 355,70 355,65 305,65 305,70 275,70 275,75 265,75 265,80 255,80 255,85 245,85 245,90 240,90 240,95 235,95 
			235,105 230,105 230,120 225,120 225,135 220,135 220,200 215,200 215,190 210,190 210,180 205,180 205,175 200,175 200,160 
			195,160 195,125 200,125 200,115 195,115 195,95 200,95 200,85 205,85 205,70 210,70 210,65 215,65 215,55 220,55 220,50 225,50 
			225,45 235,45 235,40 250,40 250,35 255,35 255,30 260,30 260,25 265,25 265,20 270,20 270,15 280,15 280,10 290,10 290,5 320,5 
			320,0 345,0 345,5 370,5 370,10 380,10 380,15 385,15 385,20 395,20 395,25 400,25 400,30 405,30 405,35 410,35 410,40 415,40 
			415,45 425,45 425,50 435,50 435,55 440,55 440,60 445,60 445,80 450,80 450,90 455,90 455,125 		"/>
	</g>
	<g id="hair-mid">
		<rect x="325" y="10" class="me17" width="15" height="5"/>
		<polygon class="me17" points="365,50 365,55 350,55 350,50 340,50 340,55 305,55 305,60 290,60 290,65 275,65 275,60 260,60 
			260,55 255,55 255,40 260,40 260,35 265,35 265,30 270,30 270,25 280,25 280,20 290,20 290,15 315,15 315,10 320,10 320,15 
			325,15 325,20 360,20 360,25 345,25 345,30 355,30 355,35 360,35 360,40 355,40 355,45 360,45 360,50 		"/>
		<rect x="360" y="25" class="me17" width="5" height="5"/>
		<rect x="380" y="25" class="me17" width="5" height="5"/>
		<rect x="360" y="40" class="me17" width="10" height="5"/>
		<rect x="385" y="45" class="me17" width="5" height="5"/>
		<rect x="370" y="50" class="me17" width="5" height="5"/>
		<rect x="240" y="60" class="me17" width="5" height="5"/>
		<polygon class="me17" points="240,80 240,85 245,85 245,90 240,90 240,95 235,95 235,105 230,105 230,95 225,95 225,105 220,105 
			220,100 215,100 215,90 210,90 210,70 215,70 215,65 225,65 225,60 230,60 230,65 240,65 240,75 245,75 245,80 		"/>
		<rect x="295" y="65" class="me17" width="10" height="5"/>
		<rect x="355" y="65" class="me17" width="15" height="5"/>
		<rect x="245" y="70" class="me17" width="5" height="5"/>
		<rect x="265" y="70" class="me17" width="10" height="5"/>
		<rect x="380" y="70" class="me17" width="10" height="5"/>
		<rect x="440" y="70" class="me17" width="5" height="5"/>
		<rect x="255" y="75" class="me17" width="10" height="5"/>
		<rect x="245" y="80" class="me17" width="10" height="5"/>
		<path class="me17" d="M445,90V80h-5v-5h-5v-5h5V60h-5v-5h-10v-5h-10v5h5v5h-5v-5h-5v-5h-5V40h-5v-5h-5v-5h-10v5h5v5h5v10h-5v5h5v5
			h-5v5h5v5h5v5h-10v5h10v5h5v5h5v5h5v-5h5v5h-5v10h5v-5h5v5h5v5h5v10h5v-15h5V95h-5v-5H445z M415,80h-5v-5h5V80z"/>
		<rect x="205" y="90" class="me17" width="5" height="5"/>
		<rect x="210" y="100" class="me17" width="5" height="5"/>
		<rect x="225" y="105" class="me17" width="5" height="15"/>
		<rect x="420" y="110" class="me17" width="5" height="10"/>
		<rect x="205" y="115" class="me17" width="5" height="10"/>
		<polygon class="me17" points="215,140 215,155 210,155 210,165 205,165 205,145 200,145 200,150 195,150 195,125 205,125 205,135 
			210,135 210,140 		"/>
		<rect x="220" y="125" class="me17" width="5" height="10"/>
		<rect x="260" y="125" class="me17" width="5" height="5"/>
		<polygon class="me17" points="365,135 365,140 340,140 340,130 345,130 345,125 350,125 350,135 		"/>
		<polygon class="me17" points="410,140 410,150 405,150 405,145 395,145 395,140 385,140 385,135 375,135 375,130 360,130 360,125 
			390,125 390,130 400,130 400,135 405,135 405,140 		"/>
		<polygon class="me17" points="300,130 300,140 275,140 275,135 285,135 285,130 280,130 280,125 295,125 295,130 		"/>
		<rect x="425" y="130" class="me17" width="5" height="15"/>
		<polygon class="me17" points="255,130 255,135 250,135 250,145 240,145 240,150 235,150 235,140 240,140 240,135 245,135 245,130 
					"/>
		<rect x="445" y="160" class="me17" width="5" height="5"/>
		<rect x="210" y="165" class="me17" width="5" height="10"/>
		<rect x="440" y="170" class="me17" width="5" height="5"/>
		<rect x="210" y="185" class="me17" width="5" height="5"/>
		<polygon class="me17" points="450,135 450,155 445,155 445,150 440,150 440,155 435,155 435,185 440,185 440,190 435,190 435,195 
			430,195 430,145 440,145 440,125 445,125 445,135 		"/>
		<rect x="215" y="195" class="me17" width="5" height="5"/>
		<polygon class="me17" points="455,100 455,120 450,120 450,115 445,115 445,105 450,105 450,100 		"/>
	</g>
	<g id="hair-light">
		<rect x="275" y="30" class="me18" width="5" height="5"/>
		<polygon class="me18" points="280,50 280,55 265,55 265,50 260,50 260,40 265,40 265,35 270,35 270,45 275,45 275,50 		"/>
		<rect x="275" y="40" class="me18" width="5" height="5"/>
		<rect x="280" y="45" class="me18" width="5" height="5"/>
		<rect x="415" y="50" class="me18" width="5" height="5"/>
		<polygon class="me18" points="435,65 435,75 430,75 430,85 435,85 435,95 430,95 430,90 420,90 420,80 415,80 415,75 420,75 
			420,70 415,70 415,65 420,65 420,55 425,55 425,60 430,60 430,65 		"/>
		<rect x="430" y="55" class="me18" width="5" height="5"/>
		<rect x="410" y="60" class="me18" width="5" height="5"/>
		<rect x="300" y="65" class="me18" width="5" height="5"/>
		<rect x="355" y="65" class="me18" width="5" height="5"/>
		<polygon class="me18" points="235,80 235,85 230,85 230,90 225,90 225,85 220,85 220,80 215,80 215,75 220,75 220,70 225,70 
			225,75 230,75 230,80 		"/>
		<rect x="230" y="70" class="me18" width="5" height="5"/>
		<rect x="270" y="70" class="me18" width="5" height="5"/>
		<rect x="380" y="70" class="me18" width="5" height="5"/>
		<rect x="260" y="75" class="me18" width="5" height="5"/>
		<rect x="390" y="75" class="me18" width="5" height="5"/>
		<rect x="435" y="75" class="me18" width="5" height="5"/>
		<rect x="250" y="80" class="me18" width="5" height="5"/>
		<rect x="400" y="80" class="me18" width="5" height="5"/>
		<rect x="215" y="85" class="me18" width="5" height="5"/>
		<rect x="405" y="85" class="me18" width="5" height="5"/>
		<rect x="235" y="90" class="me18" width="5" height="5"/>
		<rect x="410" y="90" class="me18" width="5" height="5"/>
		<rect x="230" y="100" class="me18" width="5" height="5"/>
		<rect x="415" y="100" class="me18" width="5" height="5"/>
		<rect x="435" y="100" class="me18" width="5" height="5"/>
		<rect x="450" y="100" class="me18" width="5" height="20"/>
		<rect x="225" y="115" class="me18" width="5" height="5"/>
		<rect x="420" y="115" class="me18" width="5" height="5"/>
		<rect x="285" y="125" class="me18" width="10" height="5"/>
		<rect x="375" y="125" class="me18" width="15" height="5"/>
		<rect x="220" y="130" class="me18" width="5" height="5"/>
		<rect x="395" y="130" class="me18" width="5" height="5"/>
		<rect x="440" y="130" class="me18" width="5" height="5"/>
		<rect x="450" y="130" class="me18" width="5" height="5"/>
		<rect x="295" y="130" class="me18" width="5" height="10"/>
		<rect x="445" y="135" class="me18" width="5" height="10"/>
		<rect x="235" y="140" class="me18" width="5" height="5"/>
		<rect x="245" y="140" class="me18" width="5" height="5"/>
		<rect x="395" y="140" class="me18" width="10" height="5"/>
		<rect x="425" y="140" class="me18" width="5" height="5"/>
		<rect x="405" y="145" class="me18" width="5" height="5"/>
		<rect x="230" y="150" class="me18" width="5" height="5"/>
		<rect x="410" y="150" class="me18" width="5" height="5"/>
		<rect x="280" y="160" class="me18" width="5" height="5"/>
		<rect x="280" y="165" class="me18" width="5" height="5"/>
		<rect x="375" y="165" class="me18" width="5" height="5"/>
	</g>
</g>
</svg>
