<?xml version="1.0" encoding="utf-8"?>
<!-- Generator: Adobe Illustrator 24.0.1, SVG Export Plug-In . SVG Version: 6.00 Build 0)  -->
<svg version="1.1" id="kana_flashcards" xmlns="http://www.w3.org/2000/svg" xmlns:xlink="http://www.w3.org/1999/xlink" x="0px"
	 y="0px" viewBox="0 0 123.2 40" style="enable-background:new 0 0 123.2 40;" xml:space="preserve">
<style type="text/css">
	.st0{fill:#FFFFFF;}
	.st1{fill:#FF0000;}
	.st2{fill:#00FF00;}
</style>
<g>
	<polygon class="st0" points="59.4,20.4 59.4,21.5 53.6,21.5 53.6,27.4 53.1,27.4 53.1,27.4 51.9,27.4 51.9,22.5 45.1,22.5 
		45.1,21.4 51,21.4 51,17.7 45.1,17.7 45.1,16.5 50,16.5 50,12.6 50.5,12.6 50.5,12.6 51.6,12.6 51.6,15.5 57.5,15.5 57.5,16.7 
		52.6,16.7 52.6,20.4 	"/>
	<polygon class="st0" points="74.2,19.4 74.2,20.6 73.7,20.6 73.7,20.6 61.8,20.6 61.8,19.4 62.3,19.4 62.3,19.4 	"/>
	<path class="st0" d="M90.5,14.5v-1h-1v-1h-1.2l0,0h-0.5v1h-0.3v-1h-1.1l0,0h-0.5v1.1h1v1h1v1H89l0,0h0.5v-1h0.3v1H91l0,0h0.5v-1.2
		L90.5,14.5L90.5,14.5z M88.5,14.5v-0.8h0.3v0.8H88.5z"/>
	<polygon class="st0" points="90.5,23.3 90.5,25.4 90,25.4 90,25.5 88.8,25.5 88.8,23.5 87.9,23.5 87.9,21.6 86.9,21.6 86.9,20.6 
		85.9,20.6 85.9,19.4 86.4,19.4 86.4,19.4 87.6,19.4 87.6,20.4 88.5,20.4 88.5,21.4 89.5,21.4 89.5,23.3 	"/>
	<polygon class="st0" points="90.5,16.5 90.5,17.6 84.6,17.6 84.6,26.4 83.7,26.4 83.7,27.4 83.2,27.4 83.2,27.4 80.1,27.4 
		80.1,26.3 83,26.3 83,17.7 77.2,17.7 77.2,16.5 83,16.5 83,12.6 83.5,12.6 83.5,12.6 84.6,12.6 84.6,16.5 	"/>
	<polygon class="st0" points="80.7,19.4 80.7,21.5 79.8,21.5 79.8,23.5 78.8,23.5 78.8,24.5 77.8,24.5 77.8,25.4 77.3,25.4 
		77.3,25.5 76.2,25.5 76.2,24.3 77.2,24.3 77.2,23.3 78.1,23.3 78.1,21.4 79.1,21.4 79.1,19.4 79.6,19.4 79.6,19.4 	"/>
	<polygon class="st0" points="121,14.5 121,15.7 120.6,15.7 120.6,15.7 119.4,15.7 119.4,14.7 118.4,14.7 118.4,13.8 117.5,13.8 
		117.5,12.6 118,12.6 118,12.6 119.1,12.6 119.1,13.6 120.1,13.6 120.1,14.5 	"/>
	<polygon class="st0" points="119.1,15.5 119.1,16.7 118.6,16.7 118.6,16.7 117.5,16.7 117.5,15.7 116.5,15.7 116.5,14.7 
		115.5,14.7 115.5,13.6 116,13.6 116,13.6 117.2,13.6 117.2,14.5 118.1,14.5 118.1,15.5 	"/>
	<polygon class="st0" points="120.1,20.4 120.1,21.5 119.6,21.5 119.6,21.6 117.5,21.6 117.5,20.6 115.5,20.6 115.5,19.6 
		112.6,19.6 112.6,18.6 111.3,18.6 111.3,27.4 110.8,27.4 110.8,27.4 109.7,27.4 109.7,12.6 110.2,12.6 110.2,12.6 111.3,12.6 
		111.3,17.5 113.3,17.5 113.3,18.5 116.2,18.5 116.2,19.4 118.1,19.4 118.1,20.4 	"/>
	<polygon class="st0" points="105.8,19.4 105.8,20.6 105.3,20.6 105.3,20.6 93.4,20.6 93.4,19.4 93.9,19.4 93.9,19.4 	"/>
</g>
<g>
	<g id="heart">
		<path d="M19.6,8H29v0.9h1v5.3h-1.1v1.1h-1.1v1.1h-1.1v1.1h-1.1v1.1h-3.2v-1.1h-1.1v-1.1h-1.1v-1.1h-1.1v-1.1H18v-5h1.3V8H19.6z"/>
		<path class="st1" d="M20.4,8.9h3.2V10h1.1V8.9h3.2V10H29v3.2h-1.1v1.1h-1.1v1.1h-1.1v1.1h-1.1v1.1h-1.1v-1.1h-1.1v-1.1h-1.1v-1.1
			h-1.1v-1.1h-1.1V10h1.1V8.9H20.4z"/>
		<path class="st0" d="M21.5,10h1.1v1.1h-1.1V10z M20.4,11.1h1.1v1.1h-1.1V11.1z"/>
	</g>
	<g id="ki">
		<polygon points="25.2,20.2 25.2,24.2 19.2,24.2 19.2,30.3 15.1,30.3 15.1,25.2 8.1,25.2 8.1,21.2 13.9,21.2 13.9,19.2 7.1,19.2 
			7.1,15.1 13.1,15.1 13.1,10.1 17.1,10.1 17.1,14.1 23.2,14.1 23.2,18.2 18.1,18.2 18.1,20.2 		"/>
		<polygon class="st2" points="24.2,21.2 24.2,23.2 18.1,23.2 18.1,29.2 16.1,29.2 16.1,24.2 9.1,24.2 9.1,22.2 15.1,22.2 
			15.1,18.2 8.1,18.2 8.1,16.1 14.1,16.1 14.1,11.1 16.1,11.1 16.1,15.1 22.2,15.1 22.2,17.1 17.1,17.1 17.1,21.2 		"/>
	</g>
	<g id="skull">
		<path d="M4.2,20.7h7.3v1h1v1h1V29h-1v1h-2.1v2.1H3.1V30h-1v-7.3h1v-1h1L4.2,20.7L4.2,20.7z"/>
		<path class="st0" d="M5.2,21.8h5.2v1h1v1h1V28h-1v1h-2v2.1h-1v-1h-1v1h-1v-1h-1v1h-1V29h-1v-1h2.1v-2H3.1v-2.1h1v-1h1L5.2,21.8
			L5.2,21.8z"/>
		<path d="M6.3,27h1v1h-1V27z"/>
		<path d="M8.4,26h2.1v2.1H8.4V26z"/>
	</g>
</g>
</svg>
