<?xml version="1.0" encoding="utf-8"?>
<svg version="1.1" id="dino-rider"
    xmlnsev="http://www.w3.org/2001/xml-events"
    xmlns="http://www.w3.org/2000/svg"
    xmlnsXlink="http://www.w3.org/1999/xlink" x="0px" y="0px" viewBox="0 0 470 430" style="enable-background:new 0 0 470 430;" xmlSpace="preserve">
    <style type="text/css">
        .st0{fill:#825E47;}
        .st1{fill:#734E3E;}
        .st2{fill:#C19162;}
        .st3{fill:#DB907D;}
        .st4{fill:#E99A7E;}
        .st5{fill:#FFD2AC;}
        .st6{fill:#F5C39D;}
        .st7{fill:#ECA689;}
        .st8{fill:#AF4023;}
        .st9{fill:#942B28;}
        .st10{fill:#555555;}
        .st11{fill:#2E3192;}
        .st12{fill:#0054A6;}
        .st13{fill:#440E62;}
        .st14{fill:#00AEEF;}
        .st15{fill:#0072BC;}
        .st16{fill:#291E32;}
        .st17{fill:#4A3436;}
        .st18{fill:#704337;}
    </style>
    <polygon class="st0" points="285,10 285,15 255,15 255,20 250,20 250,25 245,25 245,10 250,10 250,0 255,0 255,5 260,5 260,0 265,0 
	265,5 270,5 270,0 275,0 275,5 280,5 280,10 "/>
    <rect x="255" y="0" class="st1" width="5" height="5"/>
    <rect x="265" y="0" class="st2" width="5" height="5"/>
    <rect x="275" y="0" class="st2" width="5" height="5"/>
    <rect x="245" y="5" class="st1" width="5" height="5"/>
    <rect x="280" y="5" class="st2" width="5" height="5"/>
    <rect x="260" y="15" class="st3" width="5" height="10"/>
    <rect x="265" y="15" class="st4" width="5" height="5"/>
    <polygon class="st5" points="280,15 280,25 265,25 265,20 270,20 270,15 "/>
    <rect x="250" y="20" class="st6" width="5" height="5"/>
    <rect x="255" y="15" class="st1" width="5" height="10"/>
    <rect x="245" y="25" class="st1" width="5" height="10"/>
    <rect x="250" y="25" class="st7" width="5" height="5"/>
    <rect x="255" y="25" class="st4" width="10" height="5"/>
    <rect x="265" y="25" class="st3" width="5" height="5"/>
    <rect x="270" y="25" class="st6" width="5" height="10"/>
    <rect x="275" y="25" class="st3" width="5" height="5"/>
    <rect x="250" y="30" class="st4" width="5" height="5"/>
    <polygon class="st3" points="275,50 275,60 270,60 270,55 265,55 265,50 260,50 260,45 255,45 255,30 260,30 260,40 265,40 265,45 
	270,45 270,50 "/>
    <polygon class="st5" points="275,40 275,45 265,45 265,40 260,40 260,30 270,30 270,40 "/>
    <rect x="275" y="30" class="st5" width="5" height="10"/>
    <rect x="250" y="35" class="st1" width="5" height="5"/>
    <rect x="270" y="35" class="st7" width="5" height="5"/>
    <polygon class="st7" points="270,55 270,60 265,60 265,65 255,65 255,60 250,60 250,50 255,50 255,45 260,45 260,50 265,50 265,55 
	"/>
    <polygon class="st8" points="300,70 300,75 295,75 295,80 290,80 290,100 285,100 285,130 280,130 280,145 275,145 275,150 270,150 
	270,145 265,145 265,140 260,140 260,135 255,135 255,130 250,130 250,125 245,125 245,120 240,120 240,75 235,75 235,70 230,70 
	230,60 235,60 235,55 240,55 240,50 250,50 250,60 255,60 255,65 270,65 270,60 275,60 275,50 280,50 280,55 290,55 290,60 295,60 
	295,70 "/>
    <rect x="230" y="55" class="st9" width="5" height="5"/>
    <rect x="265" y="60" class="st3" width="5" height="5"/>
    <polygon class="st9" points="235,70 235,75 225,75 225,80 220,80 220,70 225,70 225,60 230,60 230,70 "/>
    <polygon class="st10" points="105,75 105,140 95,140 95,135 80,135 80,75 85,75 85,70 100,70 100,75 "/>
    <polygon class="st7" points="235,75 235,80 230,80 230,85 225,85 225,75 "/>
    <rect x="235" y="75" class="st9" width="5" height="10"/>
    <rect x="295" y="75" class="st7" width="5" height="5"/>
    <rect x="220" y="80" class="st3" width="5" height="40"/>
    <rect x="290" y="80" class="st7" width="5" height="5"/>
    <polygon class="st6" points="260,140 260,150 255,150 255,145 245,145 245,140 240,140 240,135 235,135 235,130 230,130 230,120 
	225,120 225,85 230,85 230,105 235,105 235,125 245,125 245,130 250,130 250,135 255,135 255,140 "/>
    <rect x="290" y="85" class="st3" width="5" height="30"/>
    <rect x="285" y="100" class="st9" width="5" height="10"/>
    <polygon class="st10" points="140,110 140,150 125,150 125,110 130,110 130,105 135,105 135,110 "/>
    <rect x="295" y="80" class="st6" width="5" height="35"/>
    <rect x="295" y="115" class="st3" width="5" height="10"/>
    <rect x="225" y="120" class="st7" width="5" height="10"/>
    <polygon class="st5" points="245,120 245,125 235,125 235,105 230,105 230,80 235,80 235,85 240,85 240,120 "/>
    <rect x="300" y="115" class="st6" width="5" height="10"/>
    <polygon class="st5" points="310,105 310,125 305,125 305,115 300,115 300,80 305,80 305,105 "/>
    <rect x="245" y="125" class="st5" width="5" height="5"/>
    <rect x="300" y="125" class="st3" width="5" height="5"/>
    <rect x="225" y="130" class="st8" width="5" height="5"/>
    <rect x="230" y="130" class="st7" width="5" height="5"/>
    <rect x="250" y="130" class="st5" width="5" height="5"/>
    <rect x="5" y="135" class="st10" width="10" height="5"/>
    <polygon class="st9" points="250,145 250,150 235,150 235,155 220,155 220,140 225,140 225,135 230,135 230,140 240,140 240,145 "/>
    <rect x="230" y="135" class="st8" width="5" height="5"/>
    <rect x="235" y="135" class="st7" width="5" height="5"/>
    <rect x="255" y="135" class="st5" width="5" height="5"/>
    <polygon class="st3" points="305,135 305,145 300,145 300,150 295,150 295,140 300,140 300,135 "/>
    <rect x="240" y="140" class="st7" width="5" height="5"/>
    <polygon class="st5" points="280,150 280,155 265,155 265,150 260,150 260,140 265,140 265,145 270,145 270,150 "/>
    <rect y="140" class="st10" width="5" height="10"/>
    <rect x="250" y="145" class="st7" width="5" height="5"/>
    <rect x="5" y="150" class="st10" width="5" height="5"/>
    <rect x="235" y="150" class="st11" width="10" height="5"/>
    <rect x="255" y="150" class="st3" width="5" height="5"/>
    <rect x="260" y="150" class="st6" width="5" height="5"/>
    <polygon class="st9" points="290,145 290,155 280,155 280,150 275,150 275,145 280,145 280,130 285,130 285,145 "/>
    <rect x="300" y="150" class="st10" width="5" height="10"/>
    <rect x="305" y="125" class="st6" width="5" height="30"/>
    <rect x="310" y="125" class="st5" width="5" height="30"/>
    <rect x="225" y="155" class="st11" width="5" height="5"/>
    <polygon class="st12" points="260,155 260,160 235,160 235,165 230,165 230,185 225,185 225,160 230,160 230,155 245,155 245,150 
	255,150 255,155 "/>
    <rect x="260" y="155" class="st3" width="5" height="10"/>
    <polygon class="st6" points="275,155 275,170 270,170 270,165 265,165 265,155 "/>
    <rect x="275" y="155" class="st3" width="5" height="5"/>
    <rect x="280" y="155" class="st5" width="5" height="5"/>
    <rect x="290" y="155" class="st9" width="5" height="5"/>
    <rect x="305" y="155" class="st3" width="5" height="5"/>
    <rect x="275" y="160" class="st12" width="5" height="5"/>
    <rect x="280" y="160" class="st6" width="5" height="5"/>
    <rect x="295" y="160" class="st10" width="5" height="5"/>
    <rect x="300" y="160" class="st3" width="5" height="5"/>
    <rect x="305" y="160" class="st10" width="5" height="15"/>
    <rect x="265" y="165" class="st3" width="5" height="5"/>
    <rect x="280" y="165" class="st11" width="5" height="5"/>
    <polygon class="st13" points="295,160 295,170 285,170 285,155 290,155 290,160 "/>
    <polygon class="st14" points="275,205 275,230 270,230 270,235 265,235 265,230 260,230 260,210 255,210 255,200 250,200 250,190 
	245,190 245,170 260,170 260,180 265,180 265,195 270,195 270,205 "/>
    <rect x="270" y="170" class="st3" width="5" height="5"/>
    <rect x="275" y="170" class="st6" width="5" height="5"/>
    <rect x="270" y="175" class="st12" width="5" height="5"/>
    <rect x="275" y="175" class="st11" width="5" height="5"/>
    <rect x="285" y="175" class="st11" width="5" height="5"/>
    <rect x="310" y="175" class="st10" width="5" height="10"/>
    <rect x="270" y="180" class="st11" width="5" height="5"/>
    <polygon class="st13" points="305,180 305,185 285,185 285,180 290,180 290,175 295,175 295,170 300,170 300,180 "/>
    <path class="st10" d="M465,190v-45h-5v-15h-5v-5h-10v-5h-35v5h-5v5h-5v10h-5v15h-5v15h-5v10h-5v10h-5v5h-10v5h-5v5h-25v-5h-5v-5h-10
	v-5h-10v-5h-20v10h5v10h5v10h5v10h5v5h5v5h5v5h5v5h5v5h10v5h10v5h35v-10h5v-10h5v-10h5v-5h5v-5h5v-5h5v-5h-5v-5h5v5h5v5h5v5h5v-25h5
	v-10h5v-5h5v-5h15v5h-15v5h-5v10h-5v25h-5v5h5v5h5v5h20v-5h5v-10h5v-30H465z M420,160h-5v-5h-5v-5h-5v-5h5v-5h5v5h5V160z M420,140
	v-5h-10v-5h10v5h5v5H420z M430,150h-5v-5h5V150z"/>
    <rect x="230" y="185" class="st12" width="5" height="10"/>
    <rect x="235" y="195" class="st12" width="5" height="5"/>
    <rect x="270" y="195" class="st15" width="5" height="10"/>
    <rect x="240" y="200" class="st12" width="5" height="5"/>
    <polygon class="st12" points="255,215 255,225 250,225 250,220 245,220 245,205 250,205 250,215 "/>
    <rect x="275" y="215" class="st15" width="5" height="15"/>
    <rect x="245" y="225" class="st12" width="5" height="10"/>
    <rect x="420" y="225" class="st10" width="5" height="10"/>
    <rect x="415" y="235" class="st10" width="5" height="5"/>
    <polygon class="st12" points="245,235 245,245 240,245 240,250 235,250 235,240 240,240 240,235 "/>
    <rect x="410" y="240" class="st10" width="5" height="5"/>
    <rect x="250" y="245" class="st14" width="5" height="5"/>
    <rect x="405" y="245" class="st10" width="5" height="5"/>
    <rect x="160" y="250" class="st10" width="20" height="5"/>
    <rect x="230" y="250" class="st12" width="5" height="5"/>
    <rect x="395" y="250" class="st10" width="10" height="5"/>
    <rect x="40" y="255" class="st10" width="35" height="5"/>
    <rect x="110" y="255" class="st10" width="50" height="5"/>
    <rect x="180" y="255" class="st10" width="15" height="5"/>
    <polygon class="st14" points="250,250 250,260 245,260 245,275 240,275 240,280 230,280 230,270 235,270 235,260 240,260 240,255 
	245,255 245,250 "/>
    <rect x="390" y="255" class="st10" width="5" height="5"/>
    <rect x="410" y="255" class="st10" width="20" height="5"/>
    <rect x="225" y="260" class="st12" width="5" height="5"/>
    <rect x="220" y="265" class="st12" width="5" height="10"/>
    <rect x="140" y="270" class="st10" width="15" height="5"/>
    <polygon class="st15" points="275,230 275,240 270,240 270,245 265,245 265,250 260,250 260,255 255,255 255,265 250,265 250,275 
	245,275 245,260 250,260 250,250 255,250 255,245 250,245 250,250 245,250 245,255 240,255 240,260 235,260 235,270 230,270 
	230,275 225,275 225,265 230,265 230,255 235,255 235,250 240,250 240,245 245,245 245,235 250,235 250,225 255,225 255,215 
	250,215 250,205 245,205 245,200 240,200 240,195 235,195 235,185 230,185 230,165 235,165 235,160 260,160 260,165 265,165 
	265,170 270,170 270,195 265,195 265,180 260,180 260,170 245,170 245,190 250,190 250,200 255,200 255,210 260,210 260,230 
	265,230 265,235 270,235 270,230 "/>
    <rect x="120" y="275" class="st10" width="5" height="5"/>
    <rect x="220" y="275" class="st16" width="5" height="5"/>
    <rect x="225" y="275" class="st12" width="5" height="5"/>
    <polygon class="st10" points="405,340 405,360 400,360 400,365 390,365 390,360 395,360 395,355 400,355 400,350 395,350 395,355 
	390,355 390,360 385,360 385,365 375,365 375,360 380,360 380,355 385,355 385,315 380,315 380,320 370,320 370,325 355,325 
	355,320 350,320 350,315 345,315 345,320 350,320 350,325 355,325 355,345 360,345 360,360 355,360 355,370 345,370 345,375 
	335,375 335,370 340,370 340,365 345,365 345,350 340,350 340,360 335,360 335,365 330,365 330,370 320,370 320,365 325,365 
	325,355 330,355 330,340 335,340 335,325 330,325 330,335 325,335 325,340 320,340 320,345 310,345 310,350 300,350 300,355 
	280,355 280,360 270,360 270,375 265,375 265,395 270,395 270,400 275,400 275,395 280,395 280,390 285,390 285,395 290,395 
	290,410 300,410 300,415 305,415 305,425 300,425 300,420 290,420 290,425 285,425 285,430 280,430 280,415 275,415 275,425 
	270,425 270,430 260,430 260,425 265,425 265,420 260,420 260,425 245,425 245,420 240,420 240,400 245,400 245,390 250,390 
	250,380 255,380 255,350 260,350 260,340 270,340 270,335 280,335 280,330 285,330 285,320 290,320 290,315 285,315 285,320 
	265,320 265,325 260,325 260,330 255,330 255,335 235,335 235,340 225,340 225,345 215,345 215,350 210,350 210,355 205,355 
	205,365 200,365 200,390 205,390 205,385 210,385 210,380 220,380 220,390 225,390 225,420 220,420 220,425 215,425 215,430 
	205,430 205,425 210,425 210,410 205,410 205,405 200,405 200,410 205,410 205,425 200,425 200,430 185,430 185,425 190,425 
	190,420 185,420 185,415 180,415 180,420 165,420 165,425 160,425 160,430 155,430 155,415 160,415 160,405 175,405 175,395 
	180,395 180,385 185,385 185,365 190,365 190,340 195,340 195,325 200,325 200,315 205,315 205,310 210,310 210,275 205,275 
	205,265 200,265 200,250 195,250 195,245 190,245 190,240 185,240 185,235 180,235 180,230 175,230 175,225 170,225 170,220 
	165,220 165,215 155,215 155,210 145,210 145,205 140,205 140,200 135,200 135,195 125,195 125,190 120,190 120,185 115,185 
	115,180 110,180 110,175 100,175 100,170 95,170 95,165 85,165 85,160 80,160 80,155 70,155 70,150 60,150 60,145 45,145 45,140 
	30,140 30,135 15,135 15,130 50,130 50,135 70,135 70,140 90,140 90,145 105,145 105,150 120,150 120,155 140,155 140,160 155,160 
	155,165 175,165 175,170 200,170 200,175 220,175 220,170 225,170 225,185 230,185 230,195 235,195 235,200 240,200 240,205 
	245,205 245,220 250,220 250,225 245,225 245,235 240,235 240,240 235,240 235,250 230,250 230,260 225,260 225,265 220,265 
	220,280 215,280 215,290 220,290 220,295 225,295 225,300 230,300 230,305 235,305 235,310 250,310 250,305 255,305 255,295 
	250,295 250,290 245,290 245,275 250,275 250,265 255,265 255,255 260,255 260,250 265,250 265,245 270,245 270,240 275,240 
	275,230 280,230 280,215 275,215 275,195 270,195 270,185 275,185 275,180 280,180 280,185 285,185 285,195 290,195 290,205 
	295,205 295,215 300,215 300,225 305,225 305,230 310,230 310,235 315,235 315,240 320,240 320,245 325,245 325,250 330,250 
	330,255 340,255 340,260 350,260 350,265 380,265 380,270 375,270 375,280 370,280 370,285 365,285 365,290 360,290 360,295 
	355,295 355,300 360,300 360,305 390,305 390,310 395,310 395,325 400,325 400,340 "/>
    <polygon class="st17" points="245,290 245,295 240,295 240,305 235,305 235,300 230,300 230,295 225,295 225,290 220,290 220,280 
	235,280 235,285 240,285 240,290 "/>
    <rect x="235" y="280" class="st12" width="5" height="5"/>
    <rect x="240" y="275" class="st15" width="5" height="10"/>
    <rect x="380" y="280" class="st10" width="10" height="5"/>
    <rect x="60" y="285" class="st10" width="5" height="5"/>
    <polygon class="st10" points="105,180 105,290 70,290 70,285 80,285 80,225 60,225 60,220 55,220 55,215 50,215 50,210 45,210 
	45,155 50,155 50,150 55,150 55,155 65,155 65,205 80,205 80,170 90,170 90,175 95,175 95,180 "/>
    <rect x="215" y="280" class="st16" width="5" height="10"/>
    <rect x="240" y="285" class="st12" width="5" height="5"/>
    <rect x="220" y="290" class="st16" width="5" height="5"/>
    <rect x="225" y="295" class="st16" width="5" height="5"/>
    <polygon class="st18" points="255,295 255,305 240,305 240,295 245,295 245,290 250,290 250,295 "/>
    <rect x="400" y="295" class="st10" width="5" height="5"/>
    <rect x="110" y="300" class="st10" width="5" height="5"/>
    <rect x="230" y="300" class="st16" width="5" height="5"/>
    <rect x="235" y="305" class="st16" width="10" height="5"/>
    <rect x="245" y="305" class="st17" width="5" height="5"/>
    <rect x="370" y="355" class="st10" width="5" height="5"/>
    <rect x="315" y="360" class="st10" width="5" height="5"/>
    <rect x="295" y="425" class="st10" width="5" height="5"/>
</svg>
