<?xml version="1.0" encoding="utf-8"?>
<!-- Generator: Adobe Illustrator 25.0.1, SVG Export Plug-In . SVG Version: 6.00 Build 0)  -->
<svg version="1.1" id="kana_flashcards" xmlns="http://www.w3.org/2000/svg" xmlns:xlink="http://www.w3.org/1999/xlink" x="0px"
	 y="0px" viewBox="0 0 151.8 40" style="enable-background:new 0 0 151.8 40;" xml:space="preserve">
<style type="text/css">
	.st0{fill:#C64191;}
</style>
<g>
	<path class="st0" d="M6.3,19.1c0.1-0.5,0.2-0.9,0.3-1.3c0.1-0.3,0.1-0.6,0.1-0.8c0-0.3-0.1-0.4-0.3-0.4c-0.1,0-0.3,0.1-0.5,0.2
		c-0.2,0.1-0.3,0.3-0.5,0.5c-0.2,0.2-0.3,0.4-0.5,0.6c-0.1,0.2-0.2,0.3-0.3,0.4L4.1,18c0.2-0.3,0.4-0.6,0.7-1c0.3-0.4,0.6-0.7,1-1
		c0.4-0.3,0.7-0.6,1.1-0.8C7.2,15,7.6,14.9,8,14.9c0.7,0,1,0.4,1,1.1c0,0.4-0.1,1-0.3,1.7c-0.2,0.7-0.4,1.6-0.7,2.6l-1.7,6
		c-0.2,0.6-0.4,1.1-0.7,1.7c-0.3,0.5-0.6,1-1,1.4c-0.4,0.4-0.8,0.8-1.3,1c-0.5,0.3-0.9,0.4-1.4,0.4c-0.6,0-1-0.1-1.4-0.4
		S0,29.8,0,29.4c0-0.4,0.1-0.6,0.3-0.9s0.4-0.3,0.7-0.3c0.3,0,0.5,0.1,0.6,0.2c0.1,0.2,0.2,0.3,0.3,0.5c0.1,0.2,0.2,0.4,0.3,0.5
		c0.1,0.2,0.2,0.2,0.4,0.2c0.3,0,0.6-0.2,0.9-0.5C3.7,28.9,3.9,28.5,4,28L6.3,19.1z M8.6,11.6c-0.3,0-0.6-0.1-0.9-0.3
		c-0.2-0.2-0.4-0.5-0.4-0.9c0-0.4,0.1-0.7,0.4-0.9c0.2-0.3,0.5-0.4,0.9-0.4c0.4,0,0.7,0.1,0.9,0.4c0.2,0.3,0.4,0.6,0.4,0.9
		S9.7,11,9.5,11.2C9.2,11.5,8.9,11.6,8.6,11.6z"/>
	<path class="st0" d="M18.5,15.1h1.7l-1.1,3.1c-0.2,0.5-0.4,1-0.6,1.6c-0.2,0.6-0.3,1.1-0.5,1.7c-0.1,0.5-0.3,1-0.3,1.5
		c-0.1,0.4-0.1,0.8-0.1,1c0,0.4,0.1,0.6,0.4,0.6c0.2,0,0.5-0.2,0.8-0.6c0.4-0.4,0.8-0.9,1.2-1.5l0.5,0.4c-0.6,1-1.2,1.8-1.8,2.3
		c-0.6,0.5-1.3,0.8-1.9,0.8c-0.3,0-0.5-0.1-0.7-0.4c-0.2-0.2-0.3-0.6-0.3-1.2c0-0.1,0-0.3,0-0.4c0-0.2,0-0.4,0.1-0.6l-0.1,0
		c-0.2,0.4-0.4,0.7-0.7,1c-0.3,0.3-0.6,0.6-0.9,0.8c-0.3,0.2-0.7,0.4-1,0.5c-0.3,0.1-0.7,0.2-1,0.2c-0.7,0-1.2-0.3-1.6-0.8
		C10.2,24.6,10,23.9,10,23c0-0.9,0.2-1.9,0.6-2.8c0.4-1,0.9-1.8,1.5-2.6c0.6-0.8,1.3-1.4,2-1.9c0.7-0.5,1.5-0.8,2.2-0.8
		c0.4,0,0.8,0.1,1.1,0.3c0.3,0.2,0.5,0.5,0.7,1L18.5,15.1z M16.5,15.9c-0.5,0-1,0.2-1.6,0.7c-0.5,0.5-1,1.1-1.5,1.8
		c-0.4,0.7-0.8,1.5-1.1,2.3c-0.3,0.8-0.4,1.6-0.4,2.3c0,0.5,0.1,0.9,0.3,1.2c0.2,0.3,0.5,0.4,0.8,0.4c0.3,0,0.6-0.1,1-0.4
		c0.3-0.2,0.7-0.6,1-1c0.3-0.4,0.6-0.9,0.9-1.4s0.5-1.1,0.7-1.6c0.2-0.6,0.4-1.1,0.5-1.6c0.1-0.5,0.2-1,0.2-1.4
		c0-0.3-0.1-0.6-0.2-0.8C16.9,16,16.7,15.9,16.5,15.9z"/>
	<path class="st0" d="M21.7,17.9c0.1-0.3,0.4-0.7,0.7-1c0.3-0.4,0.6-0.7,1-1c0.4-0.3,0.7-0.5,1.1-0.7c0.4-0.2,0.7-0.3,0.9-0.3
		c0.3,0,0.6,0.1,0.7,0.4c0.1,0.2,0.2,0.6,0.2,1.2c0,0.2,0,0.4,0,0.6c0,0.2-0.1,0.4-0.1,0.7l0.1,0.1c0.2-0.4,0.4-0.8,0.7-1.1
		c0.3-0.4,0.6-0.7,1-1c0.3-0.3,0.7-0.5,1-0.7c0.4-0.2,0.7-0.3,1-0.3c0.4,0,0.7,0.1,1,0.4s0.4,0.6,0.4,0.9c0,0.3-0.1,0.6-0.3,0.9
		c-0.2,0.2-0.5,0.3-0.9,0.3c-0.2,0-0.4,0-0.5-0.1c-0.1-0.1-0.2-0.2-0.3-0.3c-0.1-0.1-0.2-0.2-0.3-0.3c-0.1-0.1-0.2-0.1-0.3-0.1
		c-0.3,0-0.5,0.2-0.9,0.5c-0.3,0.3-0.7,0.8-1,1.4c-0.4,0.6-0.7,1.3-1.1,2.1c-0.4,0.8-0.7,1.6-1,2.5l-0.9,2.8h-1.9l1.3-4.1
		c0.3-0.8,0.5-1.5,0.6-2c0.2-0.5,0.3-1,0.4-1.3s0.2-0.6,0.2-0.8c0-0.2,0.1-0.4,0.1-0.5c0-0.3-0.1-0.4-0.3-0.4
		c-0.1,0-0.3,0.1-0.5,0.2c-0.2,0.1-0.4,0.2-0.6,0.4c-0.2,0.2-0.4,0.3-0.5,0.5c-0.2,0.2-0.3,0.4-0.4,0.6L21.7,17.9z"/>
	<path class="st0" d="M37.6,23c-1.2,1.9-2.6,2.9-4.3,2.9c-0.9,0-1.6-0.3-2.1-0.9c-0.5-0.6-0.7-1.4-0.7-2.4c0-0.9,0.2-1.8,0.6-2.8
		c0.4-0.9,0.9-1.8,1.5-2.5c0.6-0.7,1.3-1.3,2.1-1.8c0.8-0.5,1.5-0.7,2.3-0.7c0.6,0,1.2,0.2,1.6,0.5c0.4,0.3,0.6,0.7,0.6,1.3
		c0,0.5-0.2,0.9-0.5,1.4c-0.3,0.5-0.8,1-1.4,1.4c-0.6,0.4-1.3,0.8-2.1,1.2c-0.8,0.4-1.6,0.6-2.5,0.8c0,0.2,0,0.4-0.1,0.6
		c0,0.2,0,0.4,0,0.6c0,1.5,0.5,2.2,1.5,2.2c0.5,0,1-0.2,1.5-0.6c0.5-0.4,1-0.9,1.5-1.6L37.6,23z M36.5,15.8c-0.3,0-0.7,0.1-1.1,0.4
		c-0.4,0.3-0.7,0.6-1.1,1.1c-0.3,0.4-0.7,1-0.9,1.5c-0.3,0.6-0.5,1.2-0.7,1.8c0.6-0.2,1.2-0.4,1.8-0.7c0.5-0.3,1-0.6,1.4-1
		c0.4-0.4,0.7-0.7,0.9-1.1c0.2-0.4,0.3-0.8,0.3-1.2C37.2,16.1,37,15.8,36.5,15.8z"/>
	<path class="st0" d="M46.5,24.1c0.4,0,0.9-0.5,1.6-1.5l0.5,0.3c-1,2-2,3-3,3c-0.3,0-0.6-0.1-0.8-0.3c-0.2-0.2-0.4-0.6-0.7-1.2
		l-1.3-3.2l-0.4,0.2l-1.3,4.4h-1.8l3.9-14.4c0.1-0.4,0.1-0.6,0.1-0.7c0-0.3-0.1-0.5-0.4-0.6c-0.3-0.1-0.8-0.2-1.5-0.2l0.2-0.6l4-0.2
		l-2.1,7.7l0.1,0c0.8-1.3,1.8-1.9,2.9-1.9c0.6,0,1.1,0.2,1.5,0.5c0.4,0.3,0.5,0.7,0.5,1.2c0,0.6-0.3,1.3-0.9,1.9
		c-0.6,0.6-1.5,1.2-2.6,1.7l-0.5,0.2l1,2.6C45.9,23.7,46.2,24.1,46.5,24.1z M42.6,20.3c0.6-0.2,1.1-0.4,1.6-0.7
		c0.5-0.3,0.9-0.5,1.3-0.8c0.4-0.3,0.6-0.6,0.8-0.9c0.2-0.3,0.3-0.6,0.3-0.9c0-0.5-0.3-0.8-0.8-0.8c-0.3,0-0.6,0.1-0.9,0.3
		s-0.6,0.5-0.9,0.9c-0.3,0.4-0.6,0.8-0.8,1.3C42.9,19.3,42.7,19.8,42.6,20.3z"/>
	<path class="st0" d="M56.7,18c0-0.4,0.1-0.8,0.3-1.2c0.2-0.4,0.4-0.7,0.7-1c0.3-0.3,0.6-0.5,1.1-0.6c0.4-0.2,0.9-0.2,1.3-0.2
		c0.6,0,1.2,0.2,1.6,0.5c0.4,0.3,0.6,0.7,0.6,1.2c0,0.3-0.1,0.5-0.2,0.7c-0.2,0.2-0.4,0.2-0.6,0.2c-0.3,0-0.5-0.1-0.7-0.3
		c-0.1-0.2-0.2-0.4-0.3-0.6c-0.1-0.2-0.2-0.4-0.3-0.6c-0.1-0.2-0.3-0.3-0.5-0.3c-0.3,0-0.5,0.1-0.7,0.4c-0.2,0.3-0.3,0.6-0.3,0.9
		c0,0.4,0.1,0.9,0.4,1.2c0.3,0.4,0.6,0.8,0.9,1.2c0.3,0.4,0.6,0.9,0.9,1.4c0.3,0.5,0.4,1.1,0.4,1.7c0,0.5-0.1,0.9-0.3,1.3
		c-0.2,0.4-0.5,0.8-0.8,1.1c-0.3,0.3-0.7,0.5-1.1,0.7c-0.4,0.2-0.9,0.3-1.3,0.3c-0.8,0-1.4-0.2-1.9-0.5c-0.5-0.3-0.7-0.8-0.7-1.4
		c0-0.4,0.1-0.7,0.3-0.9c0.2-0.2,0.4-0.3,0.7-0.3c0.6,0,0.9,0.4,1,1.2c0,0.4,0.1,0.7,0.2,0.9c0.1,0.1,0.3,0.2,0.6,0.2
		c0.5,0,0.9-0.1,1.1-0.4c0.3-0.3,0.4-0.7,0.4-1.2c0-0.5-0.1-1-0.4-1.4c-0.3-0.4-0.6-0.8-0.9-1.2c-0.3-0.4-0.6-0.8-0.9-1.3
		C56.8,19.1,56.7,18.6,56.7,18z"/>
	<path class="st0" d="M69.9,24.1c0.4,0,0.9-0.5,1.6-1.5l0.5,0.3c-1,2-2,3-3,3c-0.3,0-0.6-0.1-0.8-0.3c-0.2-0.2-0.4-0.6-0.7-1.2
		l-1.3-3.2l-0.4,0.2l-1.3,4.4h-1.8l3.9-14.4c0.1-0.4,0.1-0.6,0.1-0.7c0-0.3-0.1-0.5-0.4-0.6c-0.3-0.1-0.8-0.2-1.5-0.2l0.2-0.6l4-0.2
		L67,16.8l0.1,0c0.8-1.3,1.8-1.9,2.9-1.9c0.6,0,1.1,0.2,1.5,0.5c0.4,0.3,0.5,0.7,0.5,1.2c0,0.6-0.3,1.3-0.9,1.9s-1.5,1.2-2.6,1.7
		L68,20.4l1,2.6C69.3,23.7,69.6,24.1,69.9,24.1z M66,20.3c0.6-0.2,1.1-0.4,1.6-0.7c0.5-0.3,0.9-0.5,1.3-0.8c0.4-0.3,0.6-0.6,0.8-0.9
		c0.2-0.3,0.3-0.6,0.3-0.9c0-0.5-0.3-0.8-0.8-0.8c-0.3,0-0.6,0.1-0.9,0.3c-0.3,0.2-0.6,0.5-0.9,0.9c-0.3,0.4-0.6,0.8-0.8,1.3
		S66.2,19.8,66,20.3z"/>
	<path class="st0" d="M76.4,24.5c0.2,0,0.5-0.2,0.8-0.5c0.3-0.3,0.7-0.7,1.1-1.2s0.8-1.1,1.1-1.7c0.4-0.6,0.7-1.3,0.9-2l1.5-4h1.9
		l-1.5,4.6c-0.2,0.7-0.4,1.2-0.5,1.7c-0.1,0.5-0.3,0.9-0.4,1.2c-0.1,0.3-0.2,0.6-0.2,0.8c0,0.2-0.1,0.4-0.1,0.5
		c0,0.3,0.1,0.5,0.4,0.5c0.1,0,0.3-0.1,0.5-0.2c0.2-0.1,0.4-0.3,0.6-0.5c0.2-0.2,0.4-0.5,0.6-0.7c0.2-0.3,0.3-0.6,0.5-0.9l0.6,0.3
		c-0.2,0.4-0.4,0.9-0.7,1.3s-0.6,0.8-0.9,1.1c-0.3,0.3-0.7,0.6-1,0.8c-0.4,0.2-0.7,0.3-1.1,0.3c-0.4,0-0.7-0.1-0.8-0.4
		c-0.1-0.3-0.2-0.7-0.2-1.3c0-0.2,0-0.5,0-0.7c0-0.3,0.1-0.5,0.1-0.8l-0.1-0.1c-0.4,0.6-0.7,1.2-1.1,1.6s-0.7,0.7-1,1
		c-0.3,0.3-0.6,0.4-0.9,0.5c-0.3,0.1-0.6,0.2-0.9,0.2c-0.6,0-1.1-0.2-1.3-0.5C74.1,25,74,24.6,74,24.1c0-0.6,0.1-1.2,0.3-1.9
		c0.2-0.7,0.4-1.3,0.7-1.9c0.2-0.6,0.4-1.1,0.6-1.5c0.2-0.4,0.3-0.8,0.4-1c0.1-0.3,0.2-0.5,0.2-0.7c0-0.2,0.1-0.3,0.1-0.4
		c0-0.1,0-0.1,0-0.2c0,0-0.1-0.1-0.2-0.1c-0.2,0-0.4,0.2-0.8,0.5c-0.3,0.3-0.8,0.8-1.3,1.5l-0.5-0.3c0.2-0.4,0.5-0.8,0.8-1.2
		c0.3-0.4,0.6-0.7,1-1s0.7-0.6,1.1-0.7c0.4-0.2,0.7-0.3,1-0.3c0.7,0,1,0.4,1,1.2c0,0.5-0.1,1.1-0.4,1.8c-0.3,0.7-0.6,1.6-1,2.7
		c-0.3,0.7-0.5,1.2-0.7,1.8c-0.2,0.5-0.3,1-0.3,1.4c0,0.3,0,0.5,0.1,0.6C76.2,24.4,76.3,24.5,76.4,24.5z"/>
	<path class="st0" d="M85.4,17.9c0.1-0.3,0.4-0.7,0.7-1c0.3-0.4,0.6-0.7,1-1c0.4-0.3,0.7-0.5,1.1-0.7c0.4-0.2,0.7-0.3,0.9-0.3
		c0.3,0,0.6,0.1,0.7,0.4c0.1,0.2,0.2,0.6,0.2,1.2c0,0.2,0,0.4,0,0.6c0,0.2-0.1,0.4-0.1,0.7l0.1,0.1c0.2-0.4,0.4-0.8,0.7-1.1
		c0.3-0.4,0.6-0.7,1-1c0.3-0.3,0.7-0.5,1-0.7c0.4-0.2,0.7-0.3,1-0.3c0.4,0,0.7,0.1,1,0.4c0.3,0.2,0.4,0.6,0.4,0.9
		c0,0.3-0.1,0.6-0.3,0.9c-0.2,0.2-0.5,0.3-0.9,0.3c-0.2,0-0.4,0-0.5-0.1c-0.1-0.1-0.2-0.2-0.3-0.3c-0.1-0.1-0.2-0.2-0.3-0.3
		c-0.1-0.1-0.2-0.1-0.3-0.1c-0.3,0-0.5,0.2-0.9,0.5c-0.3,0.3-0.7,0.8-1,1.4c-0.4,0.6-0.7,1.3-1.1,2.1c-0.4,0.8-0.7,1.6-1,2.5
		l-0.9,2.8h-1.9l1.3-4.1c0.3-0.8,0.5-1.5,0.6-2c0.2-0.5,0.3-1,0.4-1.3c0.1-0.4,0.2-0.6,0.2-0.8c0-0.2,0-0.4,0-0.5
		c0-0.3-0.1-0.4-0.3-0.4c-0.1,0-0.3,0.1-0.5,0.2c-0.2,0.1-0.4,0.2-0.6,0.4c-0.2,0.2-0.4,0.3-0.5,0.5c-0.2,0.2-0.3,0.4-0.4,0.6
		L85.4,17.9z"/>
	<path class="st0" d="M97.4,22.6L97.4,22.6c0.3,0.1,0.6,0.1,1,0.3c0.3,0.1,0.6,0.3,1,0.5c0.3,0.2,0.6,0.3,1,0.5
		c0.3,0.1,0.6,0.2,0.9,0.2c0.4,0,0.7-0.1,1-0.4c0.3-0.2,0.5-0.7,0.8-1.3l0.7,0.3c-0.1,0.5-0.3,0.9-0.6,1.4s-0.5,0.8-0.8,1.1
		c-0.3,0.3-0.7,0.5-1,0.7c-0.4,0.2-0.7,0.2-1.1,0.2c-0.5,0-0.9-0.1-1.2-0.3c-0.3-0.2-0.7-0.4-0.9-0.6c-0.3-0.2-0.6-0.4-0.8-0.6
		c-0.3-0.2-0.5-0.3-0.8-0.3c-0.3,0-0.5,0.1-0.6,0.3c-0.1,0.2-0.2,0.4-0.3,0.6c-0.1,0.2-0.2,0.4-0.3,0.6c-0.1,0.2-0.3,0.3-0.6,0.3
		c-0.4,0-0.7-0.2-0.7-0.6c0-0.3,0.1-0.5,0.3-0.8c0.2-0.3,0.5-0.6,1-1.1l5.5-5.3l0-0.1c-0.3,0-0.6-0.1-0.9-0.3
		c-0.3-0.2-0.6-0.4-0.9-0.6c-0.3-0.2-0.6-0.4-0.9-0.6c-0.3-0.2-0.6-0.3-0.9-0.3c-0.2,0-0.4,0.1-0.5,0.2c-0.1,0.1-0.2,0.3-0.2,0.5
		c0,0.2,0.1,0.3,0.2,0.4s0.2,0.2,0.4,0.3c0.1,0.1,0.2,0.2,0.4,0.3s0.2,0.3,0.2,0.5c0,0.6-0.3,0.9-1,0.9c-0.4,0-0.8-0.1-1-0.4
		c-0.2-0.3-0.4-0.7-0.4-1.1c0-0.4,0.1-0.8,0.2-1.1c0.2-0.3,0.4-0.6,0.7-0.9c0.3-0.3,0.6-0.5,1-0.6c0.4-0.1,0.8-0.2,1.2-0.2
		c0.5,0,0.9,0.1,1.2,0.2c0.3,0.2,0.6,0.3,0.9,0.5c0.2,0.2,0.5,0.4,0.7,0.5c0.2,0.2,0.4,0.2,0.7,0.2c0.2,0,0.4-0.1,0.5-0.2
		c0.1-0.1,0.2-0.3,0.3-0.5c0.1-0.2,0.2-0.3,0.3-0.5c0.1-0.1,0.3-0.2,0.5-0.2c0.4,0,0.6,0.2,0.6,0.6c0,0.1,0,0.2,0,0.3
		c0,0.1-0.1,0.2-0.2,0.3c-0.1,0.1-0.2,0.3-0.4,0.5c-0.2,0.2-0.4,0.4-0.7,0.7L97.4,22.6z"/>
	<path class="st0" d="M107.4,19.9c-0.2-1.1-0.4-1.9-0.7-2.3S106.3,17,106,17c-0.3,0-0.5,0.2-0.7,0.6c-0.2,0.4-0.4,1-0.6,1.8
		l-0.7-0.2c0.1-0.6,0.3-1.2,0.5-1.7c0.2-0.5,0.5-1,0.7-1.4c0.3-0.4,0.5-0.7,0.8-0.9c0.3-0.2,0.6-0.3,0.9-0.3c0.3,0,0.5,0.1,0.7,0.3
		c0.2,0.2,0.4,0.5,0.6,1c0.2,0.4,0.3,1,0.5,1.7c0.2,0.7,0.4,1.5,0.6,2.4l0.7,3.2h0.1c0.3-0.3,0.5-0.7,0.8-1.1
		c0.3-0.4,0.5-0.8,0.7-1.3c0.2-0.4,0.4-0.9,0.5-1.4c0.1-0.5,0.2-0.9,0.2-1.3c0-0.1,0-0.3,0-0.5c0-0.2,0-0.4,0-0.6
		c0-0.2,0-0.4-0.1-0.6s0-0.4,0-0.5c0-0.5,0.1-0.8,0.4-1.1s0.5-0.3,0.8-0.3c0.3,0,0.6,0.1,0.8,0.4c0.2,0.3,0.2,0.6,0.2,1
		c0,0.5-0.1,1.2-0.4,2.1c-0.3,0.9-0.7,1.8-1.2,2.8c-0.5,1-1,2-1.7,3c-0.6,1-1.3,2-1.9,2.8c-1,1.3-2,2.3-2.8,2.9
		c-0.9,0.6-1.7,1-2.4,1c-0.6,0-1-0.2-1.3-0.5c-0.3-0.3-0.5-0.7-0.5-1.1c0-0.3,0.1-0.6,0.3-0.8c0.2-0.2,0.4-0.3,0.7-0.3
		c0.3,0,0.5,0.1,0.6,0.2c0.1,0.2,0.2,0.3,0.3,0.5c0.1,0.2,0.2,0.4,0.3,0.5c0.1,0.2,0.2,0.2,0.4,0.2c0.3,0,0.6-0.1,1-0.4
		c0.4-0.3,0.8-0.6,1.2-1.1s0.8-0.9,1.1-1.4s0.6-1,0.7-1.4L107.4,19.9z"/>
	<path class="st0" d="M123,15.9c-0.3,0-0.7,0.2-1.1,0.5c-0.4,0.3-0.8,0.8-1.2,1.3s-0.8,1.2-1.2,1.9c-0.4,0.7-0.7,1.4-1,2.1l-1.5,4
		h-1.8l1.5-4.6c0.2-0.7,0.4-1.4,0.6-1.9c0.2-0.5,0.3-1,0.4-1.3c0.1-0.4,0.2-0.6,0.2-0.9c0-0.2,0.1-0.4,0.1-0.5
		c0-0.4-0.1-0.5-0.3-0.5c-0.1,0-0.3,0.1-0.5,0.3c-0.2,0.2-0.4,0.4-0.6,0.7c-0.2,0.3-0.4,0.6-0.6,1c-0.2,0.4-0.3,0.8-0.5,1.2
		l-0.6-0.3c0.5-1.4,1-2.4,1.6-3c0.6-0.7,1.2-1,2-1c0.4,0,0.7,0.1,0.9,0.4c0.2,0.2,0.3,0.6,0.3,1.2c0,0.7-0.1,1.3-0.3,1.8l0.1,0.1
		c0.7-1.2,1.4-2.1,2.1-2.6c0.7-0.6,1.5-0.8,2.3-0.8c0.6,0,1,0.1,1.3,0.4c0.3,0.3,0.5,0.7,0.5,1.2c0,0.2,0,0.4-0.1,0.6
		c0,0.2-0.1,0.5-0.2,0.8c-0.1,0.3-0.2,0.7-0.3,1.1c-0.1,0.4-0.3,0.9-0.5,1.5c-0.3,0.9-0.6,1.7-0.8,2.3c-0.2,0.6-0.3,1-0.3,1.3
		c0,0.2,0.1,0.3,0.2,0.3c0.2,0,0.5-0.2,0.8-0.5c0.4-0.3,0.8-0.8,1.5-1.5l0.5,0.3c-0.2,0.4-0.5,0.8-0.8,1.2c-0.3,0.4-0.7,0.7-1.1,1
		c-0.4,0.3-0.7,0.6-1.1,0.7c-0.4,0.2-0.7,0.3-0.9,0.3c-0.3,0-0.6-0.1-0.8-0.4c-0.2-0.3-0.3-0.7-0.3-1.2c0-0.2,0-0.4,0-0.6
		c0-0.2,0.1-0.5,0.2-0.8s0.3-0.8,0.5-1.5c0.2-0.6,0.5-1.4,0.9-2.4c0.1-0.3,0.2-0.6,0.3-0.9s0.1-0.5,0.2-0.6c0-0.2,0.1-0.3,0.1-0.5
		c0-0.1,0-0.3,0-0.4C123.5,16.2,123.3,15.9,123,15.9z M120.3,12.7l2.6-2.4c0.5-0.4,0.9-0.7,1.3-0.7c0.2,0,0.4,0.1,0.6,0.2
		c0.1,0.1,0.2,0.3,0.2,0.5c0,0.2-0.1,0.4-0.3,0.6c-0.2,0.2-0.4,0.3-0.8,0.5l-2.7,1.3H120.3z"/>
	<path class="st0" d="M128.6,18c0-0.4,0.1-0.8,0.3-1.2c0.2-0.4,0.4-0.7,0.7-1c0.3-0.3,0.6-0.5,1.1-0.6c0.4-0.2,0.9-0.2,1.3-0.2
		c0.6,0,1.2,0.2,1.6,0.5c0.4,0.3,0.6,0.7,0.6,1.2c0,0.3-0.1,0.5-0.2,0.7c-0.2,0.2-0.4,0.2-0.6,0.2c-0.3,0-0.5-0.1-0.7-0.3
		c-0.1-0.2-0.2-0.4-0.3-0.6c-0.1-0.2-0.2-0.4-0.3-0.6c-0.1-0.2-0.3-0.3-0.5-0.3c-0.3,0-0.5,0.1-0.7,0.4c-0.2,0.3-0.3,0.6-0.3,0.9
		c0,0.4,0.1,0.9,0.4,1.2s0.6,0.8,0.9,1.2c0.3,0.4,0.6,0.9,0.9,1.4c0.3,0.5,0.4,1.1,0.4,1.7c0,0.5-0.1,0.9-0.3,1.3
		c-0.2,0.4-0.5,0.8-0.8,1.1c-0.3,0.3-0.7,0.5-1.1,0.7c-0.4,0.2-0.9,0.3-1.3,0.3c-0.8,0-1.4-0.2-1.9-0.5s-0.7-0.8-0.7-1.4
		c0-0.4,0.1-0.7,0.3-0.9s0.4-0.3,0.7-0.3c0.6,0,0.9,0.4,1,1.2c0,0.4,0.1,0.7,0.2,0.9c0.1,0.1,0.3,0.2,0.6,0.2c0.5,0,0.9-0.1,1.1-0.4
		c0.3-0.3,0.4-0.7,0.4-1.2c0-0.5-0.1-1-0.4-1.4c-0.3-0.4-0.6-0.8-0.9-1.2s-0.6-0.8-0.9-1.3C128.7,19.1,128.6,18.6,128.6,18z"/>
	<path class="st0" d="M141.8,24.1c0.4,0,0.9-0.5,1.6-1.5l0.5,0.3c-1,2-2,3-3,3c-0.3,0-0.6-0.1-0.8-0.3c-0.2-0.2-0.4-0.6-0.7-1.2
		l-1.3-3.2l-0.4,0.2l-1.3,4.4h-1.8l3.9-14.4c0.1-0.4,0.1-0.6,0.1-0.7c0-0.3-0.1-0.5-0.4-0.6c-0.3-0.1-0.8-0.2-1.5-0.2l0.2-0.6l4-0.2
		l-2.1,7.7l0.1,0c0.8-1.3,1.8-1.9,2.9-1.9c0.6,0,1.1,0.2,1.5,0.5c0.4,0.3,0.5,0.7,0.5,1.2c0,0.6-0.3,1.3-0.9,1.9s-1.5,1.2-2.6,1.7
		l-0.5,0.2l1,2.6C141.2,23.7,141.5,24.1,141.8,24.1z M137.9,20.3c0.6-0.2,1.1-0.4,1.6-0.7c0.5-0.3,0.9-0.5,1.3-0.8
		c0.4-0.3,0.6-0.6,0.8-0.9c0.2-0.3,0.3-0.6,0.3-0.9c0-0.5-0.3-0.8-0.8-0.8c-0.3,0-0.6,0.1-0.9,0.3c-0.3,0.2-0.6,0.5-0.9,0.9
		c-0.3,0.4-0.6,0.8-0.8,1.3S138.1,19.8,137.9,20.3z"/>
	<path class="st0" d="M147.6,19.1c0.2-0.5,0.3-0.9,0.4-1.3c0.1-0.3,0.1-0.6,0.1-0.8c0-0.2,0-0.3-0.1-0.4c-0.1-0.1-0.1-0.1-0.2-0.1
		c-0.1,0-0.3,0.1-0.5,0.2c-0.2,0.1-0.3,0.3-0.5,0.5c-0.2,0.2-0.3,0.4-0.5,0.6s-0.2,0.3-0.3,0.4l-0.6-0.4c0.2-0.3,0.4-0.6,0.7-1
		c0.3-0.4,0.6-0.7,1-1c0.4-0.3,0.7-0.6,1.1-0.8c0.4-0.2,0.8-0.3,1.1-0.3c0.3,0,0.6,0.1,0.8,0.3c0.2,0.2,0.3,0.5,0.3,1.1
		c0,0.4-0.1,0.9-0.4,1.6c-0.2,0.7-0.5,1.5-0.9,2.5l-0.7,2c0,0.1-0.1,0.2-0.1,0.3c0,0.1-0.1,0.3-0.1,0.4c0,0.2-0.1,0.3-0.1,0.5
		c0,0.1,0,0.3,0,0.4c0,0.1,0,0.2,0.1,0.3c0.1,0.1,0.2,0.1,0.3,0.1c0.2,0,0.4-0.1,0.6-0.3c0.2-0.2,0.4-0.4,0.6-0.6
		c0.2-0.2,0.4-0.5,0.5-0.7c0.2-0.2,0.3-0.4,0.4-0.6l0.6,0.3c-0.2,0.3-0.4,0.7-0.7,1.1c-0.3,0.4-0.6,0.7-0.9,1.1s-0.7,0.6-1.1,0.8
		c-0.4,0.2-0.8,0.3-1.3,0.3c-0.4,0-0.7-0.1-0.9-0.3c-0.2-0.2-0.3-0.5-0.3-1c0-0.4,0.1-0.8,0.2-1.3c0.1-0.4,0.3-1,0.6-1.7L147.6,19.1
		z M150.5,11.6c-0.3,0-0.6-0.1-0.9-0.3c-0.2-0.2-0.4-0.5-0.4-0.9c0-0.4,0.1-0.7,0.4-0.9c0.2-0.3,0.5-0.4,0.9-0.4
		c0.4,0,0.7,0.1,0.9,0.4c0.2,0.3,0.4,0.6,0.4,0.9s-0.1,0.6-0.4,0.9C151.2,11.5,150.9,11.6,150.5,11.6z"/>
</g>
</svg>
