<?xml version="1.0" encoding="utf-8"?>
<!-- Generator: Adobe Illustrator 25.0.1, SVG Export Plug-In . SVG Version: 6.00 Build 0)  -->
<svg version="1.1" id="kana_flashcards" xmlns="http://www.w3.org/2000/svg" xmlns:xlink="http://www.w3.org/1999/xlink" x="0px"
	 y="0px" viewBox="0 0 195.5 40" style="enable-background:new 0 0 195.5 40;" xml:space="preserve">
<style type="text/css">
	.st0{fill:#2D2D34;}
	.st1{fill:#C23866;}
</style>
<g>
	<g>
		<path class="st0" d="M53.3,26.1c0,0.3-0.1,0.6-0.4,0.8c-0.2,0.2-0.5,0.4-0.9,0.4c-0.3,0-0.7-0.1-0.9-0.4l-6.9-6.4V26
			c0,0.4-0.1,0.7-0.4,1c-0.2,0.2-0.6,0.4-1,0.4s-0.7-0.1-1-0.4c-0.2-0.2-0.4-0.6-0.4-1V13.9c0-0.4,0.1-0.7,0.4-1
			c0.2-0.2,0.6-0.4,1-0.4s0.7,0.1,1,0.4c0.2,0.2,0.4,0.6,0.4,1v5.3l6.6-6.2c0.2-0.2,0.5-0.4,0.8-0.4s0.6,0.1,0.8,0.4
			c0.2,0.2,0.4,0.5,0.4,0.8s-0.1,0.6-0.4,0.9l-5.6,5.1l5.9,5.5C53.2,25.5,53.3,25.8,53.3,26.1z"/>
		<path class="st0" d="M62.5,17.9c0.7,0.7,1,1.8,1,3.2v5c0,0.4-0.1,0.7-0.3,0.9s-0.5,0.3-0.9,0.3s-0.7-0.1-0.9-0.3
			c-0.2-0.2-0.3-0.5-0.3-0.9v-0.5c-0.2,0.5-0.6,1-1.1,1.3s-1.1,0.5-1.7,0.5c-0.7,0-1.3-0.1-1.8-0.4c-0.6-0.3-1-0.7-1.3-1.1
			s-0.5-1-0.5-1.6c0-0.7,0.2-1.3,0.6-1.8c0.4-0.4,1-0.7,1.8-0.9c0.9-0.2,2-0.3,3.5-0.3h0.5v-0.5c0-0.7-0.1-1.2-0.4-1.5
			c-0.3-0.3-0.8-0.5-1.4-0.5c-0.4,0-0.8,0.1-1.2,0.2s-0.9,0.3-1.5,0.5c-0.4,0.2-0.6,0.3-0.8,0.3s-0.5-0.1-0.6-0.3
			C55,19.3,55,19.1,55,18.8c0-0.2,0.1-0.4,0.2-0.6c0.1-0.2,0.3-0.3,0.6-0.5c0.5-0.3,1.1-0.5,1.7-0.6c0.7-0.2,1.3-0.2,2-0.2
			C60.8,16.9,61.8,17.3,62.5,17.9z M60.4,24.9c0.4-0.5,0.7-1.1,0.7-1.8v-0.4h-0.4c-0.9,0-1.6,0-2.1,0.1s-0.9,0.2-1.1,0.4
			c-0.2,0.2-0.3,0.5-0.3,0.8c0,0.4,0.2,0.8,0.5,1.1c0.3,0.3,0.7,0.4,1.1,0.4C59.4,25.6,60,25.3,60.4,24.9z"/>
		<path class="st0" d="M74.7,17.9c0.6,0.7,0.9,1.7,0.9,3.1v5.1c0,0.4-0.1,0.7-0.3,0.9c-0.2,0.2-0.5,0.3-0.9,0.3s-0.7-0.1-0.9-0.3
			c-0.2-0.2-0.4-0.5-0.4-0.9v-4.9c0-0.8-0.1-1.4-0.4-1.7c-0.3-0.4-0.8-0.5-1.4-0.5c-0.7,0-1.3,0.2-1.8,0.7c-0.4,0.5-0.7,1.1-0.7,1.9
			v4.6c0,0.4-0.1,0.7-0.4,0.9c-0.2,0.2-0.6,0.3-0.9,0.3c-0.4,0-0.7-0.1-0.9-0.3c-0.2-0.2-0.3-0.5-0.3-0.9v-8c0-0.4,0.1-0.6,0.4-0.9
			c0.2-0.2,0.5-0.3,0.9-0.3s0.7,0.1,0.9,0.3c0.2,0.2,0.3,0.5,0.3,0.8v0.6c0.3-0.6,0.8-1,1.4-1.3s1.2-0.5,2-0.5
			C73.2,16.9,74.1,17.2,74.7,17.9z"/>
		<path class="st0" d="M85.7,17.9c0.7,0.7,1,1.8,1,3.2v5c0,0.4-0.1,0.7-0.3,0.9c-0.2,0.2-0.5,0.3-0.9,0.3s-0.7-0.1-0.9-0.3
			c-0.2-0.2-0.3-0.5-0.3-0.9v-0.5c-0.2,0.5-0.6,1-1.1,1.3c-0.5,0.3-1.1,0.5-1.7,0.5c-0.7,0-1.3-0.1-1.8-0.4c-0.6-0.3-1-0.7-1.3-1.1
			c-0.3-0.5-0.5-1-0.5-1.6c0-0.7,0.2-1.3,0.6-1.8s1-0.7,1.8-0.9c0.9-0.2,2-0.3,3.5-0.3h0.5v-0.5c0-0.7-0.1-1.2-0.4-1.5
			s-0.8-0.5-1.4-0.5c-0.4,0-0.8,0.1-1.2,0.2c-0.4,0.1-0.9,0.3-1.5,0.5c-0.4,0.2-0.6,0.3-0.8,0.3c-0.2,0-0.5-0.1-0.6-0.3
			c-0.2-0.2-0.2-0.4-0.2-0.7c0-0.2,0.1-0.4,0.2-0.6s0.3-0.3,0.6-0.5c0.5-0.3,1.1-0.5,1.7-0.6c0.7-0.2,1.3-0.2,2-0.2
			C84,16.9,85,17.3,85.7,17.9z M83.6,24.9c0.4-0.5,0.7-1.1,0.7-1.8v-0.4h-0.4c-0.9,0-1.6,0-2.1,0.1s-0.9,0.2-1.1,0.4
			c-0.2,0.2-0.3,0.5-0.3,0.8c0,0.4,0.2,0.8,0.5,1.1c0.3,0.3,0.7,0.4,1.1,0.4C82.6,25.6,83.2,25.3,83.6,24.9z"/>
		<path class="st0" d="M95.5,27c-0.2-0.2-0.4-0.6-0.4-1V14c0-0.4,0.1-0.7,0.3-0.9c0.2-0.2,0.5-0.3,0.9-0.3h7.2
			c0.8,0,1.3,0.4,1.3,1.1c0,0.7-0.4,1.1-1.3,1.1h-5.9v4h5.5c0.8,0,1.3,0.4,1.3,1.1s-0.4,1.1-1.3,1.1h-5.5V26c0,0.4-0.1,0.7-0.4,1
			c-0.2,0.2-0.6,0.4-0.9,0.4C96.1,27.4,95.8,27.2,95.5,27z"/>
		<path class="st0" d="M107.8,27c-0.2-0.2-0.4-0.5-0.4-0.9V13.8c0-0.4,0.1-0.7,0.4-0.9c0.2-0.2,0.5-0.3,0.9-0.3s0.7,0.1,0.9,0.3
			c0.2,0.2,0.4,0.5,0.4,0.9v12.3c0,0.4-0.1,0.7-0.4,0.9c-0.2,0.2-0.6,0.3-0.9,0.3C108.4,27.4,108.1,27.3,107.8,27z"/>
		<path class="st0" d="M120.2,17.9c0.7,0.7,1,1.8,1,3.2v5c0,0.4-0.1,0.7-0.3,0.9c-0.2,0.2-0.5,0.3-0.9,0.3c-0.4,0-0.7-0.1-0.9-0.3
			c-0.2-0.2-0.3-0.5-0.3-0.9v-0.5c-0.2,0.5-0.6,1-1.1,1.3s-1.1,0.5-1.7,0.5c-0.7,0-1.3-0.1-1.8-0.4c-0.6-0.3-1-0.7-1.3-1.1
			c-0.3-0.5-0.5-1-0.5-1.6c0-0.7,0.2-1.3,0.6-1.8c0.4-0.4,1-0.7,1.8-0.9c0.9-0.2,2-0.3,3.5-0.3h0.5v-0.5c0-0.7-0.1-1.2-0.4-1.5
			s-0.8-0.5-1.4-0.5c-0.4,0-0.8,0.1-1.2,0.2c-0.4,0.1-0.9,0.3-1.5,0.5c-0.4,0.2-0.6,0.3-0.8,0.3c-0.2,0-0.5-0.1-0.6-0.3
			c-0.2-0.2-0.2-0.4-0.2-0.7c0-0.2,0.1-0.4,0.2-0.6s0.3-0.3,0.6-0.5c0.5-0.3,1.1-0.5,1.7-0.6s1.3-0.2,2-0.2
			C118.5,16.9,119.5,17.3,120.2,17.9z M118.1,24.9c0.4-0.5,0.7-1.1,0.7-1.8v-0.4h-0.4c-0.9,0-1.6,0-2.1,0.1s-0.9,0.2-1.1,0.4
			c-0.2,0.2-0.3,0.5-0.3,0.8c0,0.4,0.2,0.8,0.5,1.1c0.3,0.3,0.7,0.4,1.1,0.4C117.1,25.6,117.7,25.3,118.1,24.9z"/>
		<path class="st0" d="M123.9,26.5c-0.4-0.3-0.7-0.6-0.7-1.1c0-0.3,0.1-0.5,0.2-0.7c0.2-0.2,0.3-0.3,0.6-0.3c0.2,0,0.6,0.1,1,0.3
			c0.4,0.2,0.8,0.4,1.2,0.5c0.4,0.1,0.8,0.2,1.4,0.2c0.6,0,1-0.1,1.4-0.3c0.3-0.2,0.5-0.5,0.5-0.8c0-0.2-0.1-0.4-0.2-0.6
			c-0.1-0.1-0.4-0.3-0.7-0.4s-0.9-0.3-1.5-0.4c-1.2-0.2-2.1-0.6-2.6-1.1s-0.8-1.1-0.8-1.9c0-0.6,0.2-1.2,0.5-1.6
			c0.4-0.5,0.8-0.9,1.5-1.1c0.6-0.3,1.3-0.4,2.1-0.4c0.6,0,1.1,0.1,1.7,0.2c0.5,0.1,1,0.4,1.4,0.6c0.4,0.3,0.7,0.6,0.7,1.1
			c0,0.3-0.1,0.5-0.2,0.7c-0.2,0.2-0.3,0.3-0.6,0.3c-0.2,0-0.3,0-0.4-0.1s-0.3-0.2-0.5-0.3c-0.4-0.2-0.7-0.4-1-0.5s-0.6-0.2-1.1-0.2
			c-0.5,0-0.9,0.1-1.2,0.3c-0.3,0.2-0.4,0.5-0.4,0.8s0.2,0.6,0.5,0.8c0.3,0.2,0.9,0.4,1.8,0.5c0.9,0.2,1.6,0.4,2.2,0.7
			c0.5,0.2,0.9,0.6,1.1,0.9c0.2,0.4,0.3,0.8,0.3,1.4c0,0.9-0.4,1.7-1.2,2.2c-0.8,0.6-1.8,0.8-3.1,0.8
			C126,27.4,124.8,27.1,123.9,26.5z"/>
		<path class="st0" d="M143.3,21.1v5.1c0,0.4-0.1,0.7-0.3,0.9c-0.2,0.2-0.5,0.3-0.9,0.3s-0.7-0.1-0.9-0.3c-0.2-0.2-0.4-0.5-0.4-0.9
			v-5.1c0-0.7-0.1-1.3-0.4-1.6c-0.3-0.3-0.8-0.5-1.4-0.5c-0.7,0-1.3,0.2-1.8,0.7c-0.4,0.5-0.7,1.1-0.7,1.9v4.6
			c0,0.4-0.1,0.7-0.4,0.9c-0.2,0.2-0.6,0.3-0.9,0.3c-0.4,0-0.7-0.1-0.9-0.3c-0.2-0.2-0.3-0.5-0.3-0.9V13.8c0-0.4,0.1-0.6,0.4-0.9
			c0.2-0.2,0.6-0.3,0.9-0.3c0.4,0,0.7,0.1,0.9,0.3s0.4,0.5,0.4,0.8v4.8c0.3-0.5,0.8-0.9,1.4-1.2c0.6-0.3,1.2-0.4,2-0.4
			C142.1,16.9,143.3,18.3,143.3,21.1z"/>
		<path class="st0" d="M147.8,26.8c-0.8-0.4-1.4-1-1.8-1.8c-0.4-0.8-0.6-1.7-0.6-2.7s0.2-2,0.7-2.8c0.4-0.8,1-1.4,1.8-1.9
			c0.8-0.4,1.7-0.7,2.7-0.7c0.5,0,1.1,0.1,1.6,0.2c0.5,0.2,1,0.4,1.4,0.6c0.4,0.3,0.7,0.7,0.7,1.1c0,0.3-0.1,0.5-0.2,0.7
			c-0.1,0.2-0.3,0.3-0.6,0.3c-0.2,0-0.3,0-0.5-0.1s-0.3-0.2-0.5-0.2c-0.3-0.2-0.6-0.3-0.9-0.4c-0.3-0.1-0.6-0.2-0.9-0.2
			c-0.9,0-1.5,0.3-2,0.8c-0.5,0.6-0.7,1.4-0.7,2.4s0.2,1.8,0.7,2.4s1.1,0.8,2,0.8c0.3,0,0.7-0.1,0.9-0.2c0.3-0.1,0.6-0.2,0.9-0.4
			c0.2-0.1,0.4-0.2,0.5-0.3c0.2-0.1,0.3-0.1,0.5-0.1s0.4,0.1,0.6,0.3s0.2,0.4,0.2,0.7c0,0.2-0.1,0.4-0.2,0.6
			c-0.1,0.2-0.3,0.3-0.5,0.5c-0.4,0.3-0.9,0.5-1.5,0.7s-1.1,0.2-1.7,0.2C149.4,27.4,148.5,27.2,147.8,26.8z"/>
		<path class="st0" d="M163.5,17.9c0.7,0.7,1,1.8,1,3.2v5c0,0.4-0.1,0.7-0.3,0.9c-0.2,0.2-0.5,0.3-0.9,0.3s-0.7-0.1-0.9-0.3
			c-0.2-0.2-0.3-0.5-0.3-0.9v-0.5c-0.2,0.5-0.6,1-1.1,1.3s-1.1,0.5-1.7,0.5c-0.7,0-1.3-0.1-1.8-0.4c-0.6-0.3-1-0.7-1.3-1.1
			c-0.3-0.5-0.5-1-0.5-1.6c0-0.7,0.2-1.3,0.6-1.8c0.4-0.4,1-0.7,1.8-0.9c0.9-0.2,2-0.3,3.5-0.3h0.5v-0.5c0-0.7-0.1-1.2-0.4-1.5
			c-0.3-0.3-0.8-0.5-1.4-0.5c-0.4,0-0.8,0.1-1.2,0.2s-0.9,0.3-1.5,0.5c-0.4,0.2-0.6,0.3-0.8,0.3s-0.5-0.1-0.6-0.3
			c-0.2-0.2-0.2-0.4-0.2-0.7c0-0.2,0.1-0.4,0.2-0.6c0.1-0.2,0.3-0.3,0.6-0.5c0.5-0.3,1.1-0.5,1.7-0.6c0.7-0.2,1.3-0.2,2-0.2
			C161.8,16.9,162.8,17.3,163.5,17.9z M161.4,24.9c0.4-0.5,0.7-1.1,0.7-1.8v-0.4h-0.4c-0.9,0-1.6,0-2.1,0.1s-0.9,0.2-1.1,0.4
			c-0.2,0.2-0.3,0.5-0.3,0.8c0,0.4,0.2,0.8,0.5,1.1c0.3,0.3,0.7,0.4,1.1,0.4C160.4,25.6,161,25.3,161.4,24.9z"/>
		<path class="st0" d="M173.6,17.2c0.2,0.2,0.3,0.4,0.3,0.8s-0.1,0.6-0.3,0.8c-0.2,0.2-0.5,0.3-1,0.4l-0.6,0.1
			c-0.8,0.1-1.4,0.4-1.8,0.8c-0.4,0.5-0.6,1.1-0.6,1.8v4.3c0,0.4-0.1,0.7-0.4,0.9c-0.2,0.2-0.6,0.3-0.9,0.3c-0.4,0-0.7-0.1-0.9-0.3
			c-0.2-0.2-0.4-0.5-0.4-0.9v-8c0-0.4,0.1-0.7,0.4-0.9c0.2-0.2,0.5-0.3,0.9-0.3s0.6,0.1,0.9,0.3c0.2,0.2,0.3,0.5,0.3,0.9V19
			c0.3-0.6,0.7-1.1,1.2-1.4s1.1-0.5,1.7-0.6h0.3C173.2,16.9,173.4,17,173.6,17.2z"/>
		<path class="st0" d="M184.2,12.9c0.2,0.2,0.4,0.5,0.4,0.9v12.3c0,0.4-0.1,0.7-0.4,0.9c-0.2,0.2-0.5,0.3-0.9,0.3s-0.7-0.1-0.9-0.3
			c-0.2-0.2-0.4-0.5-0.4-0.9v-0.5c-0.3,0.6-0.7,1-1.3,1.3c-0.6,0.3-1.2,0.5-2,0.5c-0.9,0-1.6-0.2-2.3-0.7c-0.7-0.4-1.2-1.1-1.6-1.9
			c-0.4-0.8-0.6-1.7-0.6-2.8c0-1,0.2-2,0.6-2.7c0.4-0.8,0.9-1.4,1.6-1.8c0.7-0.4,1.5-0.6,2.3-0.6c0.7,0,1.4,0.2,1.9,0.5
			c0.6,0.3,1,0.7,1.3,1.3v-4.9c0-0.3,0.1-0.6,0.3-0.8s0.5-0.3,0.9-0.3C183.7,12.6,184,12.7,184.2,12.9z M181.4,24.6
			c0.4-0.6,0.7-1.4,0.7-2.4s-0.2-1.8-0.7-2.4s-1.1-0.8-1.9-0.8c-0.8,0-1.5,0.3-1.9,0.8c-0.5,0.6-0.7,1.3-0.7,2.4
			c0,1,0.2,1.9,0.7,2.4c0.5,0.6,1.1,0.9,1.9,0.9C180.3,25.4,180.9,25.1,181.4,24.6z"/>
		<path class="st0" d="M187.3,26.5c-0.4-0.3-0.7-0.6-0.7-1.1c0-0.3,0.1-0.5,0.2-0.7c0.2-0.2,0.3-0.3,0.6-0.3c0.2,0,0.6,0.1,1,0.3
			c0.4,0.2,0.8,0.4,1.2,0.5s0.8,0.2,1.4,0.2c0.6,0,1-0.1,1.4-0.3c0.3-0.2,0.5-0.5,0.5-0.8c0-0.2-0.1-0.4-0.2-0.6
			c-0.1-0.1-0.4-0.3-0.7-0.4s-0.9-0.3-1.5-0.4c-1.2-0.2-2.1-0.6-2.6-1.1s-0.8-1.1-0.8-1.9c0-0.6,0.2-1.2,0.5-1.6
			c0.4-0.5,0.8-0.9,1.5-1.1c0.6-0.3,1.3-0.4,2.1-0.4c0.6,0,1.1,0.1,1.7,0.2c0.5,0.1,1,0.4,1.4,0.6c0.4,0.3,0.7,0.6,0.7,1.1
			c0,0.3-0.1,0.5-0.2,0.7c-0.2,0.2-0.3,0.3-0.6,0.3c-0.2,0-0.3,0-0.4-0.1c-0.1-0.1-0.3-0.2-0.5-0.3c-0.4-0.2-0.7-0.4-1-0.5
			s-0.6-0.2-1.1-0.2s-0.9,0.1-1.2,0.3c-0.3,0.2-0.4,0.5-0.4,0.8s0.2,0.6,0.5,0.8c0.3,0.2,0.9,0.4,1.8,0.5c0.9,0.2,1.6,0.4,2.2,0.7
			c0.5,0.2,0.9,0.6,1.1,0.9c0.2,0.4,0.3,0.8,0.3,1.4c0,0.9-0.4,1.7-1.2,2.2c-0.8,0.6-1.8,0.8-3.1,0.8
			C189.4,27.4,188.2,27.1,187.3,26.5z"/>
	</g>
	<g>
		<ellipse class="st1" cx="13.5" cy="19.9" rx="10.4" ry="10.4"/>
		<g>
			<path class="st0" d="M17,22c0,1-0.1,2.1-0.3,3.2s-0.5,2.2-1,3.1c-0.5,1-1.1,1.8-2,2.4c-0.9,0.6-1.9,0.9-3.2,0.9
				c-0.6,0-1.1-0.2-1.6-0.5c-0.5-0.3-0.8-0.8-0.8-1.4c0-0.1,0-0.2,0-0.3s0-0.2,0-0.3C8,28.8,7.9,28.4,7.8,28s-0.3-0.9-0.5-1.3
				s-0.4-0.8-0.6-1c-0.4,0.8-0.7,1.6-1.1,2.4c-0.4,0.8-0.7,1.6-1.1,2.4c-0.2,0.4-0.5,0.9-0.9,1.3s-0.8,0.6-1.3,0.6
				c-0.9,0-1.4-0.3-1.8-0.8C0.2,31,0,30.4,0,29.7c0-0.3,0.1-0.7,0.4-1c0.3-0.4,0.6-0.7,1-1.1s0.6-0.7,0.8-0.9c1-1.3,1.8-2.7,2.6-4.1
				s1.5-2.9,2.1-4.4c-0.4,0.2-0.9,0.4-1.3,0.6c-0.4,0.2-0.9,0.4-1.3,0.7C4,19.7,3.8,19.8,3.6,20c-0.1-0.1-0.4,0-0.8,0
				c-0.5,0-0.9-0.2-1.3-0.5c-0.3-0.3-0.6-0.7-0.8-1.1c-0.2-0.5-0.3-0.9-0.3-1.3c0-0.5,0.1-0.9,0.4-1.4c0.3-0.4,0.6-0.8,1-1
				c0,0.3,0.1,0.7,0.3,1c0.2,0.4,0.5,0.5,0.9,0.5c0.8,0,1.5-0.1,2.3-0.2s1.5-0.3,2.3-0.6c0.2-0.3,0.3-0.7,0.4-1.3
				c0.1-0.5,0.3-1.1,0.3-1.6c0.1-0.5,0.1-1,0.1-1.3c0-0.6-0.1-1-0.3-1.4C7.9,9.4,7.5,9.2,6.9,9.1c0-0.3,0.2-0.5,0.4-0.7
				S7.8,8,8.2,7.9C8.5,7.8,8.8,7.7,9,7.7c0.3,0,0.7,0.1,1.1,0.3c0.4,0.2,0.8,0.4,1.2,0.7c0.4,0.3,0.7,0.6,1,0.9
				c0.3,0.3,0.4,0.7,0.4,1.1c0,0.4-0.1,0.7-0.2,0.9c-0.2,0.2-0.3,0.4-0.6,0.7c-0.1,0.1-0.2,0.3-0.3,0.7c-0.2,0.4-0.3,0.8-0.5,1.2
				s-0.3,0.7-0.3,0.8c0.3,0,0.5-0.1,0.8-0.1c0.2,0,0.5,0,0.8,0c1.1,0,2,0.3,2.7,1c0.7,0.7,1.2,1.5,1.4,2.5c0.1,0.6,0.2,1.2,0.3,1.8
				C16.9,20.8,17,21.4,17,22z M13.2,19.9c0-0.3,0-0.6,0-1s-0.1-0.8-0.2-1.1c-0.1-0.4-0.3-0.7-0.5-0.9c-0.2-0.2-0.6-0.4-1-0.4
				c-0.2,0-0.4,0-0.5,0.1c-0.2,0-0.3,0.1-0.5,0.2c-0.5,1.4-1,2.7-1.6,4.1c-0.6,1.3-1.2,2.7-1.8,4c0.2,0.3,0.5,0.6,0.8,1
				c0.3,0.3,0.7,0.6,1.1,0.9c0.4,0.2,0.8,0.4,1.2,0.4c0.6,0,1.1-0.2,1.5-0.5c0.4-0.3,0.7-0.8,0.9-1.4c0.2-0.6,0.4-1.2,0.5-1.8
				c0.1-0.6,0.2-1.3,0.2-1.9C13.2,20.8,13.2,20.3,13.2,19.9z M26.4,18.5c0,0.9-0.2,1.7-0.6,2.4c-0.4,0.7-1.1,1-2.1,1
				c-0.4,0-0.9-0.2-1.3-0.5s-0.6-0.7-0.7-1.1c0-0.1,0-0.2,0-0.3c0-0.1,0-0.2,0-0.3c-0.1-1.8-0.6-3.2-1.5-4.2c-0.8-1-2.2-1.4-4.1-1.4
				V14c0.5-0.3,1.1-0.6,1.8-0.8c0.7-0.2,1.3-0.3,2-0.3c0.8,0,1.5,0.1,2.3,0.4c0.8,0.3,1.5,0.7,2.2,1.2s1.2,1.1,1.6,1.8
				C26.2,17,26.4,17.7,26.4,18.5z"/>
		</g>
	</g>
</g>
</svg>
