<?xml version="1.0" encoding="utf-8"?>
<!-- Generator: Adobe Illustrator 24.0.1, SVG Export Plug-In . SVG Version: 6.00 Build 0)  -->
<svg version="1.1" id="kana_flashcards" xmlns="http://www.w3.org/2000/svg" xmlns:xlink="http://www.w3.org/1999/xlink" x="0px"
	 y="0px" viewBox="0 0 200.8 40" style="enable-background:new 0 0 200.8 40;" xml:space="preserve">
<style type="text/css">
	.st0{fill:#2D2D34;}
	.st1{fill:#C23866;}
</style>
<g>
	<path class="st0" d="M56.1,26.1c0,0.3-0.1,0.6-0.4,0.8c-0.2,0.2-0.5,0.4-0.9,0.4c-0.3,0-0.7-0.1-0.9-0.4L47,20.5V26
		c0,0.4-0.1,0.7-0.4,1c-0.2,0.2-0.6,0.4-1,0.4s-0.7-0.1-1-0.4c-0.2-0.2-0.4-0.6-0.4-1V13.9c0-0.4,0.1-0.7,0.4-1
		c0.2-0.2,0.6-0.4,1-0.4s0.7,0.1,1,0.4c0.2,0.2,0.4,0.6,0.4,1v5.3l6.6-6.2c0.2-0.2,0.5-0.4,0.8-0.4s0.6,0.1,0.8,0.4
		c0.2,0.2,0.4,0.5,0.4,0.8s-0.1,0.6-0.4,0.9l-5.6,5.1l5.9,5.5C56,25.5,56.1,25.8,56.1,26.1z"/>
	<path class="st0" d="M65.3,17.9c0.7,0.7,1,1.8,1,3.2v5c0,0.4-0.1,0.7-0.3,0.9s-0.5,0.3-0.9,0.3s-0.7-0.1-0.9-0.3
		c-0.2-0.2-0.3-0.5-0.3-0.9v-0.5c-0.2,0.5-0.6,1-1.1,1.3s-1.1,0.5-1.7,0.5c-0.7,0-1.3-0.1-1.8-0.4c-0.6-0.3-1-0.7-1.3-1.1
		s-0.5-1-0.5-1.6c0-0.7,0.2-1.3,0.6-1.8c0.4-0.4,1-0.7,1.8-0.9c0.9-0.2,2-0.3,3.5-0.3h0.5v-0.5c0-0.7-0.1-1.2-0.4-1.5
		c-0.3-0.3-0.8-0.5-1.4-0.5c-0.4,0-0.8,0.1-1.2,0.2s-0.9,0.3-1.5,0.5c-0.4,0.2-0.6,0.3-0.8,0.3s-0.5-0.1-0.6-0.3
		c-0.2-0.2-0.2-0.4-0.2-0.7c0-0.2,0.1-0.4,0.2-0.6c0.1-0.2,0.3-0.3,0.6-0.5c0.5-0.3,1.1-0.5,1.7-0.6c0.7-0.2,1.3-0.2,2-0.2
		C63.6,16.9,64.6,17.3,65.3,17.9z M63.2,24.9c0.4-0.5,0.7-1.1,0.7-1.8v-0.4h-0.4c-0.9,0-1.6,0-2.1,0.1s-0.9,0.2-1.1,0.4
		C60.1,23.4,60,23.7,60,24c0,0.4,0.2,0.8,0.5,1.1c0.3,0.3,0.7,0.4,1.1,0.4C62.2,25.6,62.8,25.3,63.2,24.9z"/>
	<path class="st0" d="M77.5,17.9c0.6,0.7,0.9,1.7,0.9,3.1v5.1c0,0.4-0.1,0.7-0.3,0.9c-0.2,0.2-0.5,0.3-0.9,0.3s-0.7-0.1-0.9-0.3
		c-0.2-0.2-0.4-0.5-0.4-0.9v-4.9c0-0.8-0.1-1.4-0.4-1.7c-0.3-0.4-0.8-0.5-1.4-0.5c-0.7,0-1.3,0.2-1.8,0.7c-0.4,0.5-0.7,1.1-0.7,1.9
		v4.6c0,0.4-0.1,0.7-0.4,0.9c-0.2,0.2-0.6,0.3-0.9,0.3c-0.4,0-0.7-0.1-0.9-0.3c-0.2-0.2-0.3-0.5-0.3-0.9v-8c0-0.4,0.1-0.6,0.4-0.9
		c0.2-0.2,0.5-0.3,0.9-0.3s0.7,0.1,0.9,0.3c0.2,0.2,0.3,0.5,0.3,0.8v0.6c0.3-0.6,0.8-1,1.4-1.3s1.2-0.5,2-0.5
		C76,16.9,76.9,17.2,77.5,17.9z"/>
	<path class="st0" d="M88.5,17.9c0.7,0.7,1,1.8,1,3.2v5c0,0.4-0.1,0.7-0.3,0.9c-0.2,0.2-0.5,0.3-0.9,0.3s-0.7-0.1-0.9-0.3
		c-0.2-0.2-0.3-0.5-0.3-0.9v-0.5c-0.2,0.5-0.6,1-1.1,1.3s-1.1,0.5-1.7,0.5c-0.7,0-1.3-0.1-1.8-0.4c-0.6-0.3-1-0.7-1.3-1.1
		c-0.3-0.5-0.5-1-0.5-1.6c0-0.7,0.2-1.3,0.6-1.8s1-0.7,1.8-0.9c0.9-0.2,2-0.3,3.5-0.3h0.5v-0.5c0-0.7-0.1-1.2-0.4-1.5
		s-0.8-0.5-1.4-0.5c-0.4,0-0.8,0.1-1.2,0.2c-0.4,0.1-0.9,0.3-1.5,0.5c-0.4,0.2-0.6,0.3-0.8,0.3c-0.2,0-0.5-0.1-0.6-0.3
		C81,19.3,81,19.1,81,18.8c0-0.2,0.1-0.4,0.2-0.6s0.3-0.3,0.6-0.5c0.5-0.3,1.1-0.5,1.7-0.6c0.7-0.2,1.3-0.2,2-0.2
		C86.8,16.9,87.8,17.3,88.5,17.9z M86.4,24.9c0.4-0.5,0.7-1.1,0.7-1.8v-0.4h-0.4c-0.9,0-1.6,0-2.1,0.1s-0.9,0.2-1.1,0.4
		c-0.2,0.2-0.3,0.5-0.3,0.8c0,0.4,0.2,0.8,0.5,1.1c0.3,0.3,0.7,0.4,1.1,0.4C85.4,25.6,86,25.3,86.4,24.9z"/>
	<path class="st0" d="M98.3,27c-0.2-0.2-0.4-0.6-0.4-1V14c0-0.4,0.1-0.7,0.3-0.9c0.2-0.2,0.5-0.3,0.9-0.3h7.2c0.8,0,1.3,0.4,1.3,1.1
		c0,0.7-0.4,1.1-1.3,1.1h-5.9v4h5.5c0.8,0,1.3,0.4,1.3,1.1s-0.4,1.1-1.3,1.1h-5.5V26c0,0.4-0.1,0.7-0.4,1c-0.2,0.2-0.6,0.4-0.9,0.4
		C98.9,27.4,98.6,27.2,98.3,27z"/>
	<path class="st0" d="M110.6,27c-0.2-0.2-0.4-0.5-0.4-0.9V13.8c0-0.4,0.1-0.7,0.4-0.9c0.2-0.2,0.5-0.3,0.9-0.3s0.7,0.1,0.9,0.3
		c0.2,0.2,0.4,0.5,0.4,0.9v12.3c0,0.4-0.1,0.7-0.4,0.9c-0.2,0.2-0.6,0.3-0.9,0.3C111.2,27.4,110.9,27.3,110.6,27z"/>
	<path class="st0" d="M123,17.9c0.7,0.7,1,1.8,1,3.2v5c0,0.4-0.1,0.7-0.3,0.9c-0.2,0.2-0.5,0.3-0.9,0.3s-0.7-0.1-0.9-0.3
		c-0.2-0.2-0.3-0.5-0.3-0.9v-0.5c-0.2,0.5-0.6,1-1.1,1.3s-1.1,0.5-1.7,0.5c-0.7,0-1.3-0.1-1.8-0.4c-0.6-0.3-1-0.7-1.3-1.1
		c-0.3-0.5-0.5-1-0.5-1.6c0-0.7,0.2-1.3,0.6-1.8c0.4-0.4,1-0.7,1.8-0.9c0.9-0.2,2-0.3,3.5-0.3h0.5v-0.5c0-0.7-0.1-1.2-0.4-1.5
		s-0.8-0.5-1.4-0.5c-0.4,0-0.8,0.1-1.2,0.2c-0.4,0.1-0.9,0.3-1.5,0.5c-0.4,0.2-0.6,0.3-0.8,0.3c-0.2,0-0.5-0.1-0.6-0.3
		c-0.2-0.2-0.2-0.4-0.2-0.7c0-0.2,0.1-0.4,0.2-0.6s0.3-0.3,0.6-0.5c0.5-0.3,1.1-0.5,1.7-0.6s1.3-0.2,2-0.2
		C121.3,16.9,122.3,17.3,123,17.9z M120.9,24.9c0.4-0.5,0.7-1.1,0.7-1.8v-0.4h-0.4c-0.9,0-1.6,0-2.1,0.1s-0.9,0.2-1.1,0.4
		c-0.2,0.2-0.3,0.5-0.3,0.8c0,0.4,0.2,0.8,0.5,1.1c0.3,0.3,0.7,0.4,1.1,0.4C119.9,25.6,120.5,25.3,120.9,24.9z"/>
	<path class="st0" d="M126.7,26.5c-0.4-0.3-0.7-0.6-0.7-1.1c0-0.3,0.1-0.5,0.2-0.7c0.2-0.2,0.3-0.3,0.6-0.3c0.2,0,0.6,0.1,1,0.3
		c0.4,0.2,0.8,0.4,1.2,0.5c0.4,0.1,0.8,0.2,1.4,0.2c0.6,0,1-0.1,1.4-0.3c0.3-0.2,0.5-0.5,0.5-0.8c0-0.2-0.1-0.4-0.2-0.6
		c-0.1-0.1-0.4-0.3-0.7-0.4s-0.9-0.3-1.5-0.4c-1.2-0.2-2.1-0.6-2.6-1.1s-0.8-1.1-0.8-1.9c0-0.6,0.2-1.2,0.5-1.6
		c0.4-0.5,0.8-0.9,1.5-1.1c0.6-0.3,1.3-0.4,2.1-0.4c0.6,0,1.1,0.1,1.7,0.2c0.5,0.1,1,0.4,1.4,0.6c0.4,0.3,0.7,0.6,0.7,1.1
		c0,0.3-0.1,0.5-0.2,0.7c-0.2,0.2-0.3,0.3-0.6,0.3c-0.2,0-0.3,0-0.4-0.1s-0.3-0.2-0.5-0.3c-0.4-0.2-0.7-0.4-1-0.5s-0.6-0.2-1.1-0.2
		s-0.9,0.1-1.2,0.3c-0.3,0.2-0.4,0.5-0.4,0.8s0.2,0.6,0.5,0.8c0.3,0.2,0.9,0.4,1.8,0.5c0.9,0.2,1.6,0.4,2.2,0.7
		c0.5,0.2,0.9,0.6,1.1,0.9c0.2,0.4,0.3,0.8,0.3,1.4c0,0.9-0.4,1.7-1.2,2.2c-0.8,0.6-1.8,0.8-3.1,0.8
		C128.8,27.4,127.6,27.1,126.7,26.5z"/>
	<path class="st0" d="M146.1,21.1v5.1c0,0.4-0.1,0.7-0.3,0.9c-0.2,0.2-0.5,0.3-0.9,0.3s-0.7-0.1-0.9-0.3c-0.2-0.2-0.4-0.5-0.4-0.9
		v-5.1c0-0.7-0.1-1.3-0.4-1.6c-0.3-0.3-0.8-0.5-1.4-0.5c-0.7,0-1.3,0.2-1.8,0.7c-0.4,0.5-0.7,1.1-0.7,1.9v4.6c0,0.4-0.1,0.7-0.4,0.9
		c-0.2,0.2-0.6,0.3-0.9,0.3c-0.4,0-0.7-0.1-0.9-0.3c-0.2-0.2-0.3-0.5-0.3-0.9V13.8c0-0.4,0.1-0.6,0.4-0.9c0.2-0.2,0.6-0.3,0.9-0.3
		c0.4,0,0.7,0.1,0.9,0.3s0.4,0.5,0.4,0.8v4.8c0.3-0.5,0.8-0.9,1.4-1.2c0.6-0.3,1.2-0.4,2-0.4C144.9,16.9,146.1,18.3,146.1,21.1z"/>
	<path class="st0" d="M150.6,26.8c-0.8-0.4-1.4-1-1.8-1.8c-0.4-0.8-0.6-1.7-0.6-2.7s0.2-2,0.7-2.8c0.4-0.8,1-1.4,1.8-1.9
		c0.8-0.4,1.7-0.7,2.7-0.7c0.5,0,1.1,0.1,1.6,0.2c0.5,0.2,1,0.4,1.4,0.6c0.4,0.3,0.7,0.7,0.7,1.1c0,0.3-0.1,0.5-0.2,0.7
		c-0.1,0.2-0.3,0.3-0.6,0.3c-0.2,0-0.3,0-0.5-0.1s-0.3-0.2-0.5-0.2c-0.3-0.2-0.6-0.3-0.9-0.4c-0.3-0.1-0.6-0.2-0.9-0.2
		c-0.9,0-1.5,0.3-2,0.8c-0.5,0.6-0.7,1.4-0.7,2.4s0.2,1.8,0.7,2.4s1.1,0.8,2,0.8c0.3,0,0.7-0.1,0.9-0.2c0.3-0.1,0.6-0.2,0.9-0.4
		c0.2-0.1,0.4-0.2,0.5-0.3c0.2-0.1,0.3-0.1,0.5-0.1s0.4,0.1,0.6,0.3s0.2,0.4,0.2,0.7c0,0.2-0.1,0.4-0.2,0.6
		c-0.1,0.2-0.3,0.3-0.5,0.5c-0.4,0.3-0.9,0.5-1.5,0.7s-1.1,0.2-1.7,0.2C152.2,27.4,151.3,27.2,150.6,26.8z"/>
	<path class="st0" d="M166.3,17.9c0.7,0.7,1,1.8,1,3.2v5c0,0.4-0.1,0.7-0.3,0.9c-0.2,0.2-0.5,0.3-0.9,0.3s-0.7-0.1-0.9-0.3
		c-0.2-0.2-0.3-0.5-0.3-0.9v-0.5c-0.2,0.5-0.6,1-1.1,1.3s-1.1,0.5-1.7,0.5c-0.7,0-1.3-0.1-1.8-0.4c-0.6-0.3-1-0.7-1.3-1.1
		c-0.3-0.5-0.5-1-0.5-1.6c0-0.7,0.2-1.3,0.6-1.8c0.4-0.4,1-0.7,1.8-0.9c0.9-0.2,2-0.3,3.5-0.3h0.5v-0.5c0-0.7-0.1-1.2-0.4-1.5
		s-0.8-0.5-1.4-0.5c-0.4,0-0.8,0.1-1.2,0.2s-0.9,0.3-1.5,0.5c-0.4,0.2-0.6,0.3-0.8,0.3s-0.5-0.1-0.6-0.3c-0.2-0.2-0.2-0.4-0.2-0.7
		c0-0.2,0.1-0.4,0.2-0.6c0.1-0.2,0.3-0.3,0.6-0.5c0.5-0.3,1.1-0.5,1.7-0.6c0.7-0.2,1.3-0.2,2-0.2C164.6,16.9,165.6,17.3,166.3,17.9z
		 M164.2,24.9c0.4-0.5,0.7-1.1,0.7-1.8v-0.4h-0.4c-0.9,0-1.6,0-2.1,0.1s-0.9,0.2-1.1,0.4c-0.2,0.2-0.3,0.5-0.3,0.8
		c0,0.4,0.2,0.8,0.5,1.1c0.3,0.3,0.7,0.4,1.1,0.4C163.2,25.6,163.8,25.3,164.2,24.9z"/>
	<path class="st0" d="M176.4,17.2c0.2,0.2,0.3,0.4,0.3,0.8s-0.1,0.6-0.3,0.8c-0.2,0.2-0.5,0.3-1,0.4l-0.6,0.1
		c-0.8,0.1-1.4,0.4-1.8,0.8c-0.4,0.5-0.6,1.1-0.6,1.8v4.3c0,0.4-0.1,0.7-0.4,0.9c-0.2,0.2-0.6,0.3-0.9,0.3c-0.4,0-0.7-0.1-0.9-0.3
		c-0.2-0.2-0.4-0.5-0.4-0.9v-8c0-0.4,0.1-0.7,0.4-0.9c0.2-0.2,0.5-0.3,0.9-0.3s0.6,0.1,0.9,0.3c0.2,0.2,0.3,0.5,0.3,0.9V19
		c0.3-0.6,0.7-1.1,1.2-1.4s1.1-0.5,1.7-0.6h0.3C176,16.9,176.2,17,176.4,17.2z"/>
	<path class="st0" d="M187,12.9c0.2,0.2,0.4,0.5,0.4,0.9v12.3c0,0.4-0.1,0.7-0.4,0.9c-0.2,0.2-0.5,0.3-0.9,0.3s-0.7-0.1-0.9-0.3
		c-0.2-0.2-0.4-0.5-0.4-0.9v-0.5c-0.3,0.6-0.7,1-1.3,1.3s-1.2,0.5-2,0.5c-0.9,0-1.6-0.2-2.3-0.7c-0.7-0.4-1.2-1.1-1.6-1.9
		c-0.4-0.8-0.6-1.7-0.6-2.8c0-1,0.2-2,0.6-2.7c0.4-0.8,0.9-1.4,1.6-1.8c0.7-0.4,1.5-0.6,2.3-0.6c0.7,0,1.4,0.2,1.9,0.5
		c0.6,0.3,1,0.7,1.3,1.3v-4.9c0-0.3,0.1-0.6,0.3-0.8s0.5-0.3,0.9-0.3C186.5,12.6,186.8,12.7,187,12.9z M184.2,24.6
		c0.4-0.6,0.7-1.4,0.7-2.4s-0.2-1.8-0.7-2.4s-1.1-0.8-1.9-0.8c-0.8,0-1.5,0.3-1.9,0.8c-0.5,0.6-0.7,1.3-0.7,2.4c0,1,0.2,1.9,0.7,2.4
		c0.5,0.6,1.1,0.9,1.9,0.9C183.1,25.4,183.7,25.1,184.2,24.6z"/>
	<path class="st0" d="M190.1,26.5c-0.4-0.3-0.7-0.6-0.7-1.1c0-0.3,0.1-0.5,0.2-0.7c0.2-0.2,0.3-0.3,0.6-0.3c0.2,0,0.6,0.1,1,0.3
		c0.4,0.2,0.8,0.4,1.2,0.5s0.8,0.2,1.4,0.2c0.6,0,1-0.1,1.4-0.3c0.3-0.2,0.5-0.5,0.5-0.8c0-0.2-0.1-0.4-0.2-0.6
		c-0.1-0.1-0.4-0.3-0.7-0.4s-0.9-0.3-1.5-0.4c-1.2-0.2-2.1-0.6-2.6-1.1s-0.8-1.1-0.8-1.9c0-0.6,0.2-1.2,0.5-1.6
		c0.4-0.5,0.8-0.9,1.5-1.1c0.6-0.3,1.3-0.4,2.1-0.4c0.6,0,1.1,0.1,1.7,0.2c0.5,0.1,1,0.4,1.4,0.6c0.4,0.3,0.7,0.6,0.7,1.1
		c0,0.3-0.1,0.5-0.2,0.7c-0.2,0.2-0.3,0.3-0.6,0.3c-0.2,0-0.3,0-0.4-0.1c-0.1-0.1-0.3-0.2-0.5-0.3c-0.4-0.2-0.7-0.4-1-0.5
		s-0.6-0.2-1.1-0.2s-0.9,0.1-1.2,0.3c-0.3,0.2-0.4,0.5-0.4,0.8s0.2,0.6,0.5,0.8c0.3,0.2,0.9,0.4,1.8,0.5c0.9,0.2,1.6,0.4,2.2,0.7
		c0.5,0.2,0.9,0.6,1.1,0.9c0.2,0.4,0.3,0.8,0.3,1.4c0,0.9-0.4,1.7-1.2,2.2c-0.8,0.6-1.8,0.8-3.1,0.8C192.2,27.4,191,27.1,190.1,26.5
		z"/>
</g>
<g>
	<ellipse class="st1" cx="16.3" cy="19.9" rx="10.4" ry="10.4"/>
	<g>
		<path class="st0" d="M19.8,22c0,1-0.1,2.1-0.3,3.2c-0.2,1.1-0.5,2.2-1,3.1c-0.5,1-1.1,1.8-2,2.4s-1.9,0.9-3.2,0.9
			c-0.6,0-1.1-0.2-1.6-0.5s-0.8-0.8-0.8-1.4c0-0.1,0-0.2,0-0.3s0-0.2,0-0.3c-0.1-0.3-0.2-0.7-0.3-1.1s-0.3-0.9-0.5-1.3
			s-0.4-0.8-0.6-1c-0.4,0.8-0.7,1.6-1.1,2.4c-0.4,0.8-0.7,1.6-1.1,2.4c-0.2,0.4-0.5,0.9-0.9,1.3s-0.8,0.6-1.3,0.6
			c-0.9,0-1.4-0.3-1.8-0.8C3,31,2.8,30.4,2.8,29.7c0-0.3,0.1-0.7,0.4-1c0.3-0.4,0.6-0.7,1-1.1s0.6-0.7,0.8-0.9
			c1-1.3,1.8-2.7,2.6-4.1s1.5-2.9,2.1-4.4c-0.4,0.2-0.9,0.4-1.3,0.6C8,19,7.5,19.2,7.1,19.5c-0.3,0.2-0.5,0.3-0.7,0.5
			c-0.1-0.1-0.4,0-0.8,0c-0.5,0-0.9-0.2-1.3-0.5c-0.3-0.3-0.6-0.7-0.8-1.1c-0.2-0.5-0.3-0.9-0.3-1.3c0-0.5,0.1-0.9,0.4-1.4
			c0.3-0.4,0.6-0.8,1-1c0,0.3,0.1,0.7,0.3,1c0.2,0.4,0.5,0.5,0.9,0.5c0.8,0,1.5-0.1,2.3-0.2s1.5-0.3,2.3-0.6
			c0.2-0.3,0.3-0.7,0.4-1.3c0.1-0.5,0.3-1.1,0.3-1.6c0.1-0.5,0.1-1,0.1-1.3c0-0.6-0.1-1-0.3-1.4s-0.6-0.6-1.2-0.7
			c0-0.3,0.2-0.5,0.4-0.7S10.6,8,11,7.9c0.3-0.1,0.6-0.2,0.8-0.2c0.3,0,0.7,0.1,1.1,0.3c0.4,0.2,0.8,0.4,1.2,0.7s0.7,0.6,1,0.9
			c0.3,0.3,0.4,0.7,0.4,1.1c0,0.4-0.1,0.7-0.2,0.9c-0.2,0.2-0.3,0.4-0.6,0.7c-0.1,0.1-0.2,0.3-0.3,0.7c-0.2,0.4-0.3,0.8-0.5,1.2
			s-0.3,0.7-0.3,0.8c0.3,0,0.5-0.1,0.8-0.1c0.2,0,0.5,0,0.8,0c1.1,0,2,0.3,2.7,1c0.7,0.7,1.2,1.5,1.4,2.5c0.1,0.6,0.2,1.2,0.3,1.8
			C19.7,20.8,19.8,21.4,19.8,22z M16,19.9c0-0.3,0-0.6,0-1s-0.1-0.8-0.2-1.1c-0.1-0.4-0.3-0.7-0.5-0.9c-0.2-0.2-0.6-0.4-1-0.4
			c-0.2,0-0.4,0-0.5,0.1c-0.2,0-0.3,0.1-0.5,0.2c-0.5,1.4-1,2.7-1.6,4.1c-0.6,1.3-1.2,2.7-1.8,4c0.2,0.3,0.5,0.6,0.8,1
			c0.3,0.3,0.7,0.6,1.1,0.9c0.4,0.2,0.8,0.4,1.2,0.4c0.6,0,1.1-0.2,1.5-0.5s0.7-0.8,0.9-1.4s0.4-1.2,0.5-1.8
			c0.1-0.6,0.2-1.3,0.2-1.9C16,20.8,16,20.3,16,19.9z M29.2,18.5c0,0.9-0.2,1.7-0.6,2.4c-0.4,0.7-1.1,1-2.1,1
			c-0.4,0-0.9-0.2-1.3-0.5s-0.6-0.7-0.7-1.1c0-0.1,0-0.2,0-0.3c0-0.1,0-0.2,0-0.3c-0.1-1.8-0.6-3.2-1.5-4.2c-0.8-1-2.2-1.4-4.1-1.4
			V14c0.5-0.3,1.1-0.6,1.8-0.8c0.7-0.2,1.3-0.3,2-0.3c0.8,0,1.5,0.1,2.3,0.4c0.8,0.3,1.5,0.7,2.2,1.2s1.2,1.1,1.6,1.8
			C29,17,29.2,17.7,29.2,18.5z"/>
	</g>
</g>
</svg>
