<?xml version="1.0" encoding="utf-8"?>
<!-- Generator: Adobe Illustrator 25.0.1, SVG Export Plug-In . SVG Version: 6.00 Build 0)  -->
<svg version="1.1" id="kana_flashcards" xmlns="http://www.w3.org/2000/svg" xmlns:xlink="http://www.w3.org/1999/xlink" x="0px"
	 y="0px" viewBox="0 0 118.9 40" style="enable-background:new 0 0 118.9 40;" xml:space="preserve">
<style type="text/css">
	.st0{fill:#FFFFFF;}
	.st1{fill:#FF0000;}
	.st2{fill:#00FF00;}
</style>
<g>
	<g>
		<polygon class="st0" points="57.3,20.4 57.3,21.5 51.5,21.5 51.5,27.4 51,27.4 51,27.4 49.8,27.4 49.8,22.5 43,22.5 43,21.4 
			48.9,21.4 48.9,17.7 43,17.7 43,16.5 47.9,16.5 47.9,12.6 48.4,12.6 48.4,12.6 49.5,12.6 49.5,15.5 55.4,15.5 55.4,16.7 
			50.5,16.7 50.5,20.4 		"/>
		<polygon class="st0" points="72.1,19.4 72.1,20.6 71.6,20.6 71.6,20.6 59.7,20.6 59.7,19.4 60.2,19.4 60.2,19.4 		"/>
		<path class="st0" d="M88.4,14.5v-1h-1v-1h-1.2l0,0h-0.5v1h-0.3v-1h-1.1l0,0h-0.5v1.1h1v1h1v1h1.1l0,0h0.5v-1h0.3v1h1.2l0,0h0.5
			v-1.2L88.4,14.5L88.4,14.5z M86.4,14.5v-0.8h0.3v0.8H86.4z"/>
		<polygon class="st0" points="88.4,23.3 88.4,25.4 87.9,25.4 87.9,25.5 86.7,25.5 86.7,23.5 85.8,23.5 85.8,21.6 84.8,21.6 
			84.8,20.6 83.8,20.6 83.8,19.4 84.3,19.4 84.3,19.4 85.5,19.4 85.5,20.4 86.4,20.4 86.4,21.4 87.4,21.4 87.4,23.3 		"/>
		<polygon class="st0" points="88.4,16.5 88.4,17.6 82.5,17.6 82.5,26.4 81.6,26.4 81.6,27.4 81.1,27.4 81.1,27.4 78,27.4 78,26.3 
			80.9,26.3 80.9,17.7 75.1,17.7 75.1,16.5 80.9,16.5 80.9,12.6 81.4,12.6 81.4,12.6 82.5,12.6 82.5,16.5 		"/>
		<polygon class="st0" points="78.6,19.4 78.6,21.5 77.7,21.5 77.7,23.5 76.7,23.5 76.7,24.5 75.7,24.5 75.7,25.4 75.2,25.4 
			75.2,25.5 74.1,25.5 74.1,24.3 75.1,24.3 75.1,23.3 76,23.3 76,21.4 77,21.4 77,19.4 77.5,19.4 77.5,19.4 		"/>
		<polygon class="st0" points="118.9,14.5 118.9,15.7 118.5,15.7 118.5,15.7 117.3,15.7 117.3,14.7 116.3,14.7 116.3,13.8 
			115.4,13.8 115.4,12.6 115.9,12.6 115.9,12.6 117,12.6 117,13.6 118,13.6 118,14.5 		"/>
		<polygon class="st0" points="117,15.5 117,16.7 116.5,16.7 116.5,16.7 115.4,16.7 115.4,15.7 114.4,15.7 114.4,14.7 113.4,14.7 
			113.4,13.6 113.9,13.6 113.9,13.6 115.1,13.6 115.1,14.5 116,14.5 116,15.5 		"/>
		<polygon class="st0" points="118,20.4 118,21.5 117.5,21.5 117.5,21.6 115.4,21.6 115.4,20.6 113.4,20.6 113.4,19.6 110.5,19.6 
			110.5,18.6 109.2,18.6 109.2,27.4 108.7,27.4 108.7,27.4 107.6,27.4 107.6,12.6 108.1,12.6 108.1,12.6 109.2,12.6 109.2,17.5 
			111.2,17.5 111.2,18.5 114.1,18.5 114.1,19.4 116,19.4 116,20.4 		"/>
		<polygon class="st0" points="103.7,19.4 103.7,20.6 103.2,20.6 103.2,20.6 91.3,20.6 91.3,19.4 91.8,19.4 91.8,19.4 		"/>
	</g>
	<g>
		<g id="heart">
			<path d="M17.5,8h9.4v0.9h1v5.3h-1.1v1.1h-1.1v1.1h-1.1v1.1h-1.1v1.1h-3.2v-1.1h-1.1v-1.1h-1.1v-1.1H17v-1.1h-1.1v-5h1.3V8H17.5z"
				/>
			<path class="st1" d="M18.3,8.9h3.2V10h1.1V8.9h3.2V10h1.1v3.2h-1.1v1.1h-1.1v1.1h-1.1v1.1h-1.1v1.1h-1.1v-1.1h-1.1v-1.1h-1.1
				v-1.1h-1.1v-1.1H17V10h1.1V8.9H18.3z"/>
			<path class="st0" d="M19.4,10h1.1v1.1h-1.1V10z M18.3,11.1h1.1v1.1h-1.1V11.1z"/>
		</g>
		<g id="ki">
			<polygon points="23.1,20.2 23.1,24.2 17.1,24.2 17.1,30.3 13,30.3 13,25.2 6,25.2 6,21.2 11.8,21.2 11.8,19.2 5,19.2 5,15.1 
				11,15.1 11,10.1 15,10.1 15,14.1 21.1,14.1 21.1,18.2 16,18.2 16,20.2 			"/>
			<polygon class="st2" points="22.1,21.2 22.1,23.2 16,23.2 16,29.2 14,29.2 14,24.2 7,24.2 7,22.2 13,22.2 13,18.2 6,18.2 6,16.1 
				12,16.1 12,11.1 14,11.1 14,15.1 20.1,15.1 20.1,17.1 15,17.1 15,21.2 			"/>
		</g>
		<g id="skull">
			<path d="M2.1,20.7h7.3v1h1v1h1V29h-1v1H8.3v2.1H1V30H0v-7.3h1v-1h1L2.1,20.7L2.1,20.7z"/>
			<path class="st0" d="M3.1,21.8h5.2v1h1v1h1V28h-1v1h-2v2.1h-1v-1h-1v1h-1v-1h-1v1h-1V29h-1v-1h2.1v-2H1v-2.1h1v-1h1L3.1,21.8
				L3.1,21.8z"/>
			<path d="M4.2,27h1v1h-1V27z"/>
			<path d="M6.3,26h2.1v2.1H6.3V26z"/>
		</g>
	</g>
</g>
</svg>
