<?xml version="1.0" encoding="utf-8"?>
<svg version="1.1" id="monitor"
    xmlnsev="http://www.w3.org/2001/xml-events"
    xmlns="http://www.w3.org/2000/svg"
    xmlnsXlink="http://www.w3.org/1999/xlink" x="0px" y="0px" viewBox="0 0 505 430" style="enable-background:new 0 0 505 430;" xmlSpace="preserve">
    <style type="text/css">
        .st0{fill:#EFE9E0;}
        .st1{fill:#D1CDC8;}
        .st2{fill:#908D8D;}
        .st3{fill:#7B7879;}
        .st4{fill:#76826D;}
        .st9{fill:#FFEC81;}
        .st10{fill:#D24949;}
        .st11{fill:#39B54A;}
        .st6{opacity:0.6;}
        .st13{display:inline;}

        .white{fill:#FFFFFF;}
    
        .highlights{opacity:0.4;}
        .midtones{opacity:0.2;}
        .shadows{opacity:0.3;}
    </style>
    <g id="base">
        <rect x="455" y="0" class="st0" width="5" height="5"/>
        <rect x="470" y="5" class="st0" width="5" height="5"/>
        <rect x="480" y="10" class="st0" width="5" height="5"/>
        <rect x="485" y="15" class="st0" width="5" height="105"/>
        <polygon class="st1" points="435,30 435,120 430,120 430,40 425,40 425,35 420,35 420,30 165,30 165,25 430,25 430,30 	"/>
        <rect x="160" y="30" class="st1" width="5" height="5"/>
        <rect x="165" y="30" class="st2" width="5" height="5"/>
        <rect x="155" y="35" class="st1" width="5" height="30"/>
        <rect x="160" y="35" class="st2" width="5" height="5"/>
        <path class="st0" d="M445,10V5h-5V0H320v5H145v5h-5v40h-5v65h-5v50h-5v50h5v5h85v5h80v5h140v-5h5v-10h5v-65h5V10H445z M435,120h-5
		v70h-5v20h-5v5H320v-5H210v-5h-60v-5h-5v-75h5V65h5V35h5v-5h5v-5h265v5h5V120z"/>
        <polygon class="st3" points="430,40 430,120 425,120 425,190 420,190 420,205 415,205 415,210 320,210 320,205 210,205 210,200 
		170,200 170,195 160,195 160,190 155,190 155,185 150,185 150,125 155,125 155,65 160,65 160,40 165,40 165,35 170,35 170,30 
		420,30 420,35 425,35 425,40 	"/>
        <rect x="150" y="65" class="st1" width="5" height="60"/>
        <rect x="490" y="120" class="st0" width="5" height="105"/>
        <rect x="145" y="125" class="st1" width="5" height="75"/>
        <rect x="425" y="120" class="st1" width="5" height="70"/>
        <polygon class="st2" points="170,195 170,200 150,200 150,185 155,185 155,190 160,190 160,195 	"/>
        <rect x="150" y="200" class="st1" width="60" height="5"/>
        <rect x="210" y="205" class="st1" width="110" height="5"/>
        <polygon class="st1" points="425,190 425,210 420,210 420,215 320,215 320,210 415,210 415,205 420,205 420,190 	"/>
        <rect x="140" y="220" class="st1" width="15" height="5"/>
        <rect x="155" y="220" class="st2" width="45" height="5"/>
        <rect x="200" y="220" class="st1" width="15" height="5"/>
        <polygon class="st1" points="490,120 490,225 480,225 480,230 470,230 470,235 455,235 455,240 445,240 445,235 360,235 360,230 
		435,230 435,225 440,225 440,215 445,215 445,150 450,150 450,10 445,10 445,5 440,5 440,0 455,0 455,5 470,5 470,10 480,10 
		480,15 485,15 485,120 	"/>
        <rect x="155" y="225" class="st1" width="45" height="5"/>
        <rect x="200" y="225" class="st2" width="80" height="5"/>
        <rect x="280" y="225" class="st1" width="15" height="5"/>
        <rect x="480" y="225" class="st2" width="5" height="5"/>
        <rect x="485" y="225" class="st0" width="5" height="5"/>
        <rect x="215" y="230" class="st1" width="65" height="5"/>
        <rect x="280" y="230" class="st2" width="80" height="5"/>
        <rect x="470" y="230" class="st2" width="10" height="5"/>
        <rect x="480" y="230" class="st1" width="5" height="5"/>
        <rect x="295" y="235" class="st1" width="65" height="5"/>
        <rect x="360" y="235" class="st2" width="85" height="5"/>
        <rect x="465" y="235" class="st2" width="5" height="5"/>
        <rect x="470" y="235" class="st3" width="10" height="5"/>
        <polygon class="st2" points="500,240 500,325 495,325 495,330 490,330 490,350 485,350 485,335 480,335 480,340 470,340 470,345 
		460,345 460,350 425,350 425,345 455,345 455,340 460,340 460,295 455,295 455,250 450,250 450,245 445,245 445,240 455,240 
		455,235 465,235 465,240 460,240 460,245 470,245 470,240 480,240 480,235 490,235 490,240 	"/>
        <rect x="490" y="235" class="st1" width="5" height="5"/>
        <rect x="495" y="235" class="st0" width="5" height="5"/>
        <rect x="150" y="240" class="st1" width="5" height="10"/>
        <rect x="460" y="240" class="st3" width="10" height="5"/>
        <rect x="500" y="240" class="st0" width="5" height="5"/>
        <rect x="185" y="240" class="st1" width="5" height="10"/>
        <rect x="500" y="245" class="st1" width="5" height="80"/>
        <rect x="145" y="250" class="st1" width="5" height="15"/>
        <rect x="180" y="260" class="st1" width="5" height="5"/>
        <rect x="125" y="265" class="st1" width="5" height="5"/>
        <rect x="130" y="265" class="st2" width="15" height="5"/>
        <polygon class="st3" points="195,270 195,275 190,275 190,280 160,280 160,290 170,290 170,295 145,295 145,280 150,280 150,270 
		145,270 145,265 150,265 150,250 155,250 155,240 180,240 180,245 170,245 170,255 165,255 165,270 	"/>
        <polygon class="st2" points="185,240 185,260 180,260 180,270 165,270 165,255 170,255 170,245 180,245 180,240 	"/>
        <rect x="125" y="270" class="st2" width="5" height="5"/>
        <rect x="130" y="270" class="st3" width="15" height="5"/>
        <rect x="145" y="270" class="st2" width="5" height="10"/>
        <rect x="200" y="270" class="st1" width="5" height="5"/>
        <rect x="125" y="275" class="st1" width="20" height="5"/>
        <polygon class="st2" points="200,270 200,280 190,280 190,275 195,275 195,270 	"/>
        <rect x="140" y="280" class="st2" width="5" height="15"/>
        <rect x="175" y="280" class="st1" width="20" height="5"/>
        <rect x="135" y="290" class="st1" width="5" height="5"/>
        <polygon class="st2" points="175,280 175,295 170,295 170,290 160,290 160,280 	"/>
        <polygon class="st1" points="400,290 400,310 395,310 395,295 335,295 335,290 	"/>
        <rect x="330" y="295" class="st1" width="5" height="10"/>
        <rect x="390" y="295" class="st2" width="5" height="5"/>
        <polygon class="st1" points="460,295 460,340 455,340 455,345 425,345 425,350 420,350 420,355 415,355 415,360 410,360 410,365 
		405,365 405,370 400,370 400,375 395,375 395,380 390,380 390,385 385,385 385,390 380,390 380,395 375,395 375,400 370,400 
		370,405 365,405 365,410 360,410 360,395 365,395 365,390 370,390 370,385 365,385 365,380 370,380 370,375 375,375 375,370 
		380,370 380,365 385,365 385,360 390,360 390,355 395,355 395,350 400,350 400,345 405,345 405,340 415,340 415,335 425,335 
		425,330 430,330 430,315 435,315 435,295 440,295 440,270 445,270 445,250 440,250 440,245 375,245 375,240 445,240 445,245 
		450,245 450,250 455,250 455,295 	"/>
        <rect x="80" y="300" class="st1" width="5" height="5"/>
        <rect x="105" y="300" class="st1" width="30" height="5"/>
        <rect x="390" y="300" class="st2" width="5" height="5"/>
        <rect x="70" y="305" class="st1" width="5" height="5"/>
        <rect x="135" y="305" class="st1" width="45" height="5"/>
        <rect x="325" y="305" class="st1" width="5" height="10"/>
        <polygon class="st3" points="390,295 390,310 385,310 385,315 335,315 335,310 330,310 330,305 335,305 335,295 	"/>
        <rect x="390" y="305" class="st2" width="5" height="5"/>
        <polygon class="st1" points="135,310 135,315 100,315 100,320 95,320 95,315 90,315 90,320 75,320 75,315 85,315 85,310 	"/>
        <rect x="135" y="310" class="st0" width="45" height="5"/>
        <rect x="180" y="310" class="st1" width="45" height="5"/>
        <rect x="330" y="310" class="st2" width="5" height="5"/>
        <rect x="385" y="310" class="st2" width="5" height="5"/>
        <polygon class="st1" points="395,310 395,320 370,320 370,315 390,315 390,310 	"/>
        <rect x="55" y="315" class="st1" width="5" height="5"/>
        <rect x="90" y="315" class="st0" width="5" height="5"/>
        <rect x="115" y="315" class="st1" width="5" height="5"/>
        <rect x="180" y="315" class="st0" width="45" height="5"/>
        <rect x="225" y="315" class="st1" width="45" height="5"/>
        <rect x="315" y="315" class="st0" width="55" height="10"/>
        <rect x="45" y="320" class="st1" width="5" height="5"/>
        <rect x="70" y="320" class="st1" width="5" height="5"/>
        <rect x="75" y="320" class="st0" width="15" height="5"/>
        <polygon class="st1" points="100,325 100,330 85,330 85,335 80,335 80,330 75,330 75,325 90,325 90,320 95,320 95,325 	"/>
        <rect x="110" y="320" class="st1" width="5" height="5"/>
        <polygon class="st0" points="160,320 160,325 155,325 155,330 150,330 150,335 145,335 145,330 135,330 135,325 140,325 140,320 	
		"/>
        <polygon class="st0" points="180,320 180,325 175,325 175,330 170,330 170,335 165,335 165,340 160,340 160,335 155,335 155,330 
		160,330 160,325 165,325 165,320 	"/>
        <polygon class="st1" points="225,320 225,325 210,325 210,330 205,330 205,325 200,325 200,330 195,330 195,325 190,325 190,330 
		185,330 185,325 180,325 180,320 	"/>
        <rect x="270" y="320" class="st1" width="45" height="5"/>
        <rect x="60" y="325" class="st1" width="10" height="5"/>
        <polygon class="st0" points="115,315 115,320 110,320 110,325 105,325 105,330 100,330 100,325 95,325 95,320 100,320 100,315 	"/>
        <polygon class="st0" points="135,315 135,320 130,320 130,325 125,325 125,330 110,330 110,325 115,325 115,320 120,320 120,315 	
		"/>
        <polygon class="st1" points="180,315 180,320 165,320 165,325 160,325 160,320 140,320 140,325 135,325 135,330 145,330 145,335 
		125,335 125,340 120,340 120,335 105,335 105,340 100,340 100,345 65,345 65,340 75,340 75,335 80,335 80,340 95,340 95,335 
		100,335 100,330 105,330 105,325 110,325 110,330 125,330 125,325 130,325 130,320 135,320 135,315 	"/>
        <rect x="155" y="325" class="st1" width="5" height="5"/>
        <rect x="175" y="325" class="st1" width="5" height="5"/>
        <rect x="180" y="325" class="st0" width="5" height="5"/>
        <rect x="200" y="325" class="st0" width="5" height="5"/>
        <polygon class="st0" points="225,325 225,330 220,330 220,335 215,335 215,340 205,340 205,345 200,345 200,335 205,335 205,330 
		210,330 210,325 	"/>
        <rect x="315" y="325" class="st1" width="55" height="5"/>
        <rect x="495" y="325" class="st1" width="5" height="5"/>
        <rect x="30" y="330" class="st1" width="5" height="5"/>
        <polygon class="st0" points="80,330 80,335 75,335 75,340 65,340 65,335 60,335 60,330 70,330 70,325 75,325 75,330 	"/>
        <polygon class="st1" points="160,335 160,340 145,340 145,335 150,335 150,330 155,330 155,335 	"/>
        <rect x="175" y="330" class="st0" width="5" height="5"/>
        <polygon class="st1" points="185,330 185,340 165,340 165,335 170,335 170,330 175,330 175,335 180,335 180,330 	"/>
        <rect x="200" y="330" class="st1" width="5" height="5"/>
        <rect x="370" y="330" class="st1" width="35" height="5"/>
        <rect x="490" y="330" class="st1" width="5" height="5"/>
        <rect x="20" y="335" class="st1" width="5" height="5"/>
        <polygon class="st1" points="65,335 65,340 45,340 45,335 55,335 55,330 60,330 60,335 	"/>
        <polygon class="st0" points="100,330 100,335 95,335 95,340 80,340 80,335 85,335 85,330 	"/>
        <polygon class="st1" points="200,335 200,345 185,345 185,340 195,340 195,335 	"/>
        <polygon class="st1" points="225,340 225,345 205,345 205,340 215,340 215,335 220,335 220,340 	"/>
        <polygon class="st0" points="245,330 245,335 235,335 235,340 230,340 230,345 225,345 225,340 220,340 220,335 230,335 230,330 	
		"/>
        <polygon class="st1" points="245,335 245,340 240,340 240,345 235,345 235,350 225,350 225,345 230,345 230,340 235,340 235,335 	
		"/>
        <polygon class="st0" points="260,335 260,340 255,340 255,345 250,345 250,350 245,350 245,345 240,345 240,340 245,340 245,335 
		250,335 250,330 255,330 255,335 	"/>
        <polygon class="st1" points="300,330 300,335 285,335 285,345 275,345 275,340 280,340 280,335 265,335 265,340 260,340 260,335 
		255,335 255,330 250,330 250,335 245,335 245,330 230,330 230,335 220,335 220,330 225,330 225,325 260,325 260,330 	"/>
        <polygon class="st0" points="280,335 280,340 275,340 275,345 265,345 265,350 270,350 270,355 265,355 265,360 260,360 260,365 
		255,365 255,360 245,360 245,355 250,355 250,350 260,350 260,340 265,340 265,335 	"/>
        <polygon class="st0" points="120,335 120,340 115,340 115,345 100,345 100,340 105,340 105,335 	"/>
        <rect x="160" y="340" class="st1" width="5" height="5"/>
        <polygon class="st1" points="340,335 340,340 335,340 335,345 330,345 330,340 315,340 315,345 310,345 310,340 305,340 305,345 
		295,345 295,340 300,340 300,335 	"/>
        <rect x="335" y="340" class="st0" width="5" height="5"/>
        <polygon class="st1" points="360,340 360,345 355,345 355,350 350,350 350,345 340,345 340,340 	"/>
        <rect x="370" y="340" class="st1" width="5" height="5"/>
        <polygon class="st0" points="185,340 185,345 180,345 180,350 160,350 160,345 165,345 165,340 	"/>
        <rect x="180" y="345" class="st1" width="5" height="5"/>
        <polygon class="st0" points="200,345 200,350 195,350 195,355 180,355 180,350 185,350 185,345 	"/>
        <rect x="200" y="345" class="st1" width="5" height="5"/>
        <rect x="240" y="345" class="st1" width="5" height="5"/>
        <polygon class="st1" points="260,340 260,350 250,350 250,345 255,345 255,340 	"/>
        <polygon class="st1" points="290,350 290,355 275,355 275,360 265,360 265,355 270,355 270,350 265,350 265,345 275,345 275,350 	
		"/>
        <polygon class="st0" points="300,335 300,340 295,340 295,345 290,345 290,350 275,350 275,345 285,345 285,335 	"/>
        <rect x="290" y="345" class="st1" width="5" height="5"/>
        <polygon class="st0" points="315,345 315,350 300,350 300,355 290,355 290,350 295,350 295,345 305,345 305,340 310,340 310,345 	
		"/>
        <rect x="315" y="345" class="st1" width="10" height="5"/>
        <rect x="335" y="345" class="st1" width="5" height="5"/>
        <rect x="30" y="350" class="st1" width="35" height="5"/>
        <polygon class="st0" points="225,345 225,350 220,350 220,355 200,355 200,350 205,350 205,345 	"/>
        <rect x="220" y="350" class="st1" width="5" height="5"/>
        <rect x="245" y="350" class="st1" width="5" height="5"/>
        <polygon class="st1" points="315,350 315,360 310,360 310,355 300,355 300,350 	"/>
        <rect x="325" y="350" class="st1" width="5" height="5"/>
        <polygon class="st0" points="350,345 350,350 345,350 345,355 330,355 330,350 325,350 325,345 315,345 315,340 330,340 330,345 
		335,345 335,350 340,350 340,345 	"/>
        <rect x="345" y="350" class="st1" width="5" height="5"/>
        <polygon class="st1" points="370,345 370,350 365,350 365,355 360,355 360,345 	"/>
        <rect x="420" y="350" class="st2" width="5" height="5"/>
        <rect x="480" y="350" class="st2" width="5" height="5"/>
        <rect x="65" y="355" class="st1" width="35" height="5"/>
        <polygon class="st1" points="255,360 255,365 215,365 215,360 175,360 175,355 135,355 135,350 100,350 100,345 115,345 115,340 
		120,340 120,345 135,345 135,340 145,340 145,345 140,345 140,350 155,350 155,345 160,345 160,350 180,350 180,355 195,355 
		195,350 200,350 200,355 220,355 220,360 240,360 240,355 245,355 245,360 	"/>
        <rect x="290" y="355" class="st1" width="10" height="5"/>
        <polygon class="st0" points="325,350 325,355 320,355 320,360 315,360 315,350 	"/>
        <rect x="320" y="355" class="st1" width="5" height="5"/>
        <rect x="355" y="355" class="st1" width="5" height="5"/>
        <rect x="415" y="355" class="st2" width="5" height="5"/>
        <rect y="360" class="st1" width="5" height="5"/>
        <rect x="100" y="360" class="st1" width="40" height="5"/>
        <polygon class="st1" points="295,365 295,370 255,370 255,365 260,365 260,360 265,360 265,365 285,365 285,360 290,360 290,365 	
		"/>
        <polygon class="st0" points="315,360 315,365 305,365 305,370 295,370 295,365 290,365 290,360 300,360 300,355 310,355 310,360 	
		"/>
        <rect x="315" y="360" class="st1" width="5" height="5"/>
        <polygon class="st1" points="345,355 345,360 340,360 340,365 335,365 335,360 330,360 330,355 	"/>
        <polygon class="st1" points="355,360 355,365 350,365 350,370 345,370 345,360 	"/>
        <rect x="410" y="360" class="st2" width="5" height="5"/>
        <rect y="365" class="st2" width="5" height="5"/>
        <rect x="5" y="365" class="st1" width="35" height="5"/>
        <rect x="140" y="365" class="st1" width="35" height="5"/>
        <polygon class="st1" points="335,365 335,375 295,375 295,370 305,370 305,365 315,365 315,370 330,370 330,365 	"/>
        <polygon class="st0" points="335,360 335,365 330,365 330,370 315,370 315,365 320,365 320,360 325,360 325,355 330,355 330,360 	
		"/>
        <polygon class="st0" points="345,360 345,370 340,370 340,375 335,375 335,365 340,365 340,360 	"/>
        <rect x="405" y="365" class="st2" width="5" height="5"/>
        <polygon class="st2" points="355,420 355,425 315,425 315,420 285,420 285,415 250,415 250,410 220,410 220,405 185,405 185,400 
		155,400 155,395 125,395 125,390 95,390 95,385 65,385 65,380 35,380 35,375 5,375 5,370 40,370 40,375 70,375 70,380 105,380 
		105,385 135,385 135,390 165,390 165,395 195,395 195,400 230,400 230,405 260,405 260,410 290,410 290,415 320,415 320,420 	"/>
        <rect x="40" y="370" class="st1" width="30" height="5"/>
        <rect x="175" y="370" class="st1" width="35" height="5"/>
        <rect x="340" y="370" class="st1" width="5" height="5"/>
        <rect x="400" y="370" class="st2" width="5" height="5"/>
        <rect x="20" y="375" class="st3" width="15" height="5"/>
        <rect x="35" y="380" class="st3" width="30" height="5"/>
        <rect x="70" y="375" class="st1" width="35" height="5"/>
        <rect x="210" y="375" class="st1" width="40" height="5"/>
        <rect x="335" y="375" class="st1" width="5" height="5"/>
        <rect x="395" y="375" class="st2" width="5" height="5"/>
        <rect x="105" y="380" class="st1" width="30" height="5"/>
        <rect x="250" y="380" class="st1" width="35" height="5"/>
        <rect x="390" y="380" class="st2" width="5" height="5"/>
        <rect x="65" y="385" class="st3" width="30" height="5"/>
        <rect x="135" y="385" class="st1" width="30" height="5"/>
        <rect x="285" y="385" class="st1" width="35" height="5"/>
        <rect x="360" y="385" class="st1" width="5" height="5"/>
        <rect x="365" y="385" class="st0" width="5" height="5"/>
        <rect x="385" y="385" class="st2" width="5" height="5"/>
        <rect x="95" y="390" class="st3" width="30" height="5"/>
        <rect x="165" y="390" class="st1" width="30" height="5"/>
        <rect x="320" y="390" class="st1" width="40" height="5"/>
        <rect x="360" y="390" class="st0" width="5" height="5"/>
        <rect x="380" y="390" class="st2" width="5" height="5"/>
        <rect x="125" y="395" class="st3" width="30" height="5"/>
        <rect x="195" y="395" class="st1" width="35" height="5"/>
        <rect x="375" y="395" class="st2" width="5" height="5"/>
        <rect x="155" y="400" class="st3" width="30" height="5"/>
        <rect x="230" y="400" class="st1" width="30" height="5"/>
        <path class="st0" d="M440,250v-5h-65v-5h-80v-5h-80v-5h-60v-5h-30v10h-5v10h-5v15h-5v15h-5v15h-5v10H85v5H75v5H65v5h-5v5H50v5H40v5
		h-5v5H25v5H15v5H5v5H0v10h5v5h35v5h30v5h35v5h30v5h30v5h30v5h35v5h30v5h30v5h30v5h40v-20h-40v-5h-35v-5h-35v-5h-40v-5h-35v-5h-35
		v-5h-40v-5H65v-5H30v-5h35v5h35v5h40v5h35v5h35v5h40v5h35v5h35v5h40v-5h5v-5h5v-5h5v-5h5v-5h5v-5h5v-5h5v-5h5v-5h5v-5h10v-5h10v-5
		h5v-15h5v-20h5v-25h5v-20H440z M125,265h20v-15h5v-10h40v10h-5v15h-5v5h25v5h-5v5h-5v5h-20v10h-40v-5h5v-10h-15V265z M405,335h-30
		v10h-5v5h-5v5h-5v5h-5v5h-5v5h-5v5h-5v5h-5v-5h-40v-5h-40v-5h-40v-5h-40v-5h-40v-5h-35v-5H65v-5H45v-5h10v-5h5v-5h10v-5h5v-5h10v-5
		h50v-5h-30v-5h30v5h45v5h45v5h45v5h45v-5h10v-10h5v-10h5v-5h65v20h-5v10h-25v10h35V335z"/>
        <polygon class="st0" points="145,335 145,340 135,340 135,345 120,345 120,340 125,340 125,335 	"/>
        <polygon class="st0" points="160,340 160,345 155,345 155,350 140,350 140,345 145,345 145,340 	"/>
        <polygon class="st0" points="200,330 200,335 195,335 195,340 185,340 185,330 190,330 190,325 195,325 195,330 	"/>
        <polygon class="st0" points="245,350 245,355 240,355 240,360 220,360 220,355 225,355 225,350 235,350 235,345 240,345 240,350 	
		"/>
        <polygon class="st0" points="290,355 290,360 285,360 285,365 265,365 265,360 275,360 275,355 	"/>
        <polygon class="st0" points="360,345 360,355 355,355 355,360 345,360 345,355 350,355 350,350 355,350 355,345 	"/>
        <polygon class="st0" points="375,335 375,340 370,340 370,345 360,345 360,340 340,340 340,335 300,335 300,330 260,330 260,325 
		225,325 225,320 270,320 270,325 315,325 315,330 370,330 370,335 	"/>
        <rect x="370" y="400" class="st2" width="5" height="5"/>
        <rect x="185" y="405" class="st3" width="35" height="5"/>
        <rect x="260" y="405" class="st1" width="30" height="5"/>
        <rect x="365" y="405" class="st2" width="5" height="5"/>
        <rect x="220" y="410" class="st3" width="30" height="5"/>
        <rect x="290" y="410" class="st1" width="30" height="5"/>
        <rect x="360" y="410" class="st2" width="5" height="5"/>
        <rect x="250" y="415" class="st3" width="35" height="5"/>
        <rect x="320" y="415" class="st1" width="35" height="5"/>
        <rect x="355" y="415" class="st2" width="5" height="5"/>
        <polygon class="st3" points="485,335 485,350 480,350 480,355 475,355 475,360 465,360 465,365 455,365 455,370 445,370 445,375 
		440,375 440,380 430,380 430,385 420,385 420,390 415,390 415,395 405,395 405,400 395,400 395,405 390,405 390,410 380,410 
		380,415 370,415 370,420 360,420 360,415 365,415 365,410 370,410 370,405 375,405 375,400 380,400 380,395 385,395 385,390 
		390,390 390,385 395,385 395,380 400,380 400,375 405,375 405,370 410,370 410,365 415,365 415,360 420,360 420,355 425,355 
		425,350 460,350 460,345 470,345 470,340 480,340 480,335 	"/>
        <rect x="285" y="420" class="st3" width="30" height="5"/>
        <rect x="355" y="420" class="st3" width="5" height="5"/>
        <rect x="315" y="425" class="st3" width="35" height="5"/>
    </g>
    <g id="screen">
        <polygon id="screen-bg" class="st4" points="425,40 425,120 420,120 420,190 415,190 415,200 410,200 410,205 320,205 320,200 
		210,200 210,195 170,195 170,190 160,190 160,185 155,185 155,125 160,125 160,65 165,65 165,40 170,40 170,35 180,35 180,30 
		415,30 415,35 420,35 420,40 	"/>
        <g id="shadows" class="shadows">
            <rect x="180" y="30" width="5" height="5"/>
            <rect x="170" y="35" width="5" height="5"/>
            <rect x="165" y="40" width="5" height="5"/>
            <rect x="155" y="165" width="5" height="20"/>
            <rect x="160" y="185" width="5" height="5"/>
        </g>
        <g id="midtones" class="midtones">
            <polygon points="215,30 215,35 195,35 195,40 185,40 185,45 180,45 180,55 175,55 175,75 170,75 170,160 175,160 
			175,180 180,180 180,185 185,185 185,190 195,190 195,195 170,195 170,190 160,190 160,185 155,185 155,125 160,125 160,65 
			165,65 165,40 170,40 170,35 180,35 180,30 		"/>
            <polygon points="420,170 420,190 415,190 415,200 410,200 410,205 395,205 395,200 405,200 405,195 410,195 410,185 
			415,185 415,170 		"/>
            <polygon points="425,40 425,65 420,65 420,50 415,50 415,40 410,40 410,35 400,35 400,30 415,30 415,35 420,35 
			420,40 		"/>
        </g>
        <g id="highlights" class="highlights">
            <polygon class="white" points="405,145 405,175 400,175 400,185 395,185 395,190 390,190 390,180 395,180 395,165 400,165 400,145 
					"/>
            <polygon class="white" points="410,60 410,80 405,80 405,70 400,70 400,60 395,60 395,50 390,50 390,45 400,45 400,50 405,50 
			405,60 		"/>
            <rect x="385" y="40" class="white" width="5" height="5"/>
            <rect x="385" y="190" class="white" width="5" height="5"/>
        </g>
    </g>
    <g id="diodes">
        <polygon id="diode1" class="st11" points="350,300 350,310 340,310 340,305 345,305 345,300 	"/>
        <rect id="diode2" x="355" y="300" class="st10" width="10" height="10"/>
        <rect id="diode3" x="370" y="300" class="st9" width="15" height="10"/>
    </g>
    <g id="dots" class="st6">
        <rect id="dot1" x="255" y="120" width="10" height="10"/>
        <rect id="dot2" x="280" y="120" width="10" height="10"/>
        <rect id="dot3" x="305" y="120" width="10" height="10"/>
    </g>
    <g id="envelope" class="st6">
        <path id="env-closed" d="M330,90v-5h-80v5h-5v55h5v5h80v-5h5V90H330z M325,135h-5v5h-60v-5h-5v-20h10v5h10v5h10v5
	h10v-5h10v-5h10v-5h10V135z M315,105v5h-10v5h-10v5h-10v-5h-10v-5h-10v-5h-10v-5h5v-5h60v5h5v5H315z"/>
        <g id="env-open">
            <path class="st13" d="M330,95v-5h-5v-5h-10v-5h-10v-5h-10v-5h-10v5h-10v5h-10v5h-10v5h-5v5h-5v55h5v5h80v-5h5V95H330z M325,105h-5
		v5h5v30h-5v5h-60v-5h-5v-30h5v-5h-5v-5h5v-5h5v-5h10v-5h10v-5h10v5h10v5h10v5h5v5h5V105z"/>
            <rect x="260" y="110" class="st13" width="5" height="5"/>
            <rect x="315" y="110" class="st13" width="5" height="5"/>
            <rect x="265" y="115" class="st13" width="10" height="5"/>
            <rect x="305" y="115" class="st13" width="10" height="5"/>
            <rect x="275" y="120" class="st13" width="10" height="5"/>
            <rect x="295" y="120" class="st13" width="10" height="5"/>
            <rect x="285" y="125" class="st13" width="10" height="5"/>
        </g>
        <g id="env-letter">
            <rect x="260" y="75" class="st13" width="60" height="5"/>
            <polygon class="st13" points="335,100 335,155 330,155 330,160 250,160 250,155 245,155 245,100 250,100 250,95 255,95 255,80 260,80 260,115 255,115 255,145 260,145 260,150 320,150 320,145 325,145 325,115 320,115 320,80 325,80 325,95 330,95 330,100 	
		"/>
            <rect x="270" y="90" class="st13" width="40" height="5"/>
            <rect x="270" y="105" class="st13" width="40" height="5"/>
            <rect x="260" y="115" class="st13" width="5" height="5"/>
            <rect x="315" y="115" class="st13" width="5" height="5"/>
            <rect x="265" y="120" class="st13" width="10" height="5"/>
            <rect x="305" y="120" class="st13" width="10" height="5"/>
            <rect x="275" y="125" class="st13" width="10" height="5"/>
            <rect x="295" y="125" class="st13" width="10" height="5"/>
            <rect x="285" y="130" class="st13" width="10" height="5"/>
        </g>
    </g>
</svg>
